<?xml version="1.0" encoding="utf-8"?><svg xmlns="http://www.w3.org/2000/svg" xmlns:xlink="http://www.w3.org/1999/xlink"><symbol viewBox="0 0 8 6" id="arrow" xmlns="http://www.w3.org/2000/svg"><path d="M1.208 1.486l3.028 3.028 3.028-3.028"/></symbol><symbol viewBox="0 0 11 4" id="arrowRight" xmlns="http://www.w3.org/2000/svg"><path d="M10.908 1.772L9.275.094a.306.306 0 00-.442.001.33.33 0 00.001.456l1.097 1.126H.313A.318.318 0 000 2c0 .178.14.323.313.323H9.93L8.834 3.449a.33.33 0 000 .456.304.304 0 00.441.001l1.633-1.677a.33.33 0 000-.457z"/></symbol><symbol viewBox="0 0 22 12" id="back" xmlns="http://www.w3.org/2000/svg"><path d="M.266 5.315L5.017.282a.87.87 0 011.286.003c.354.379.353.992-.003 1.369L3.11 5.032h17.98c.503 0 .91.434.91.968s-.407.968-.91.968H3.11l3.19 3.378c.356.377.357.99.003 1.369a.87.87 0 01-1.286.003L.267 6.686a1.014 1.014 0 010-1.371z"/></symbol><symbol viewBox="0 0 12 11" id="blog" xmlns="http://www.w3.org/2000/svg"><path d="M10.427 0H1.755C.96 0 .31.663.31 1.477v7.875c0 .814.649 1.477 1.445 1.477h8.672c.797 0 1.445-.663 1.445-1.477V1.477C11.872.663 11.224 0 10.427 0zm0 9.845H1.755a.488.488 0 01-.481-.493v-6.89h9.635v6.89a.488.488 0 01-.482.493z"/><path d="M9.463 4.922H6.091a.487.487 0 01-.482-.492c0-.272.216-.492.482-.492h3.372c.266 0 .482.22.482.492a.487.487 0 01-.482.492zm0 1.969H6.091A.487.487 0 015.61 6.4c0-.272.216-.492.482-.492h3.372c.266 0 .482.22.482.492a.487.487 0 01-.482.492zm0 1.969H6.091a.487.487 0 01-.482-.492c0-.272.216-.492.482-.492h3.372c.266 0 .482.22.482.492a.487.487 0 01-.482.492zM4.164 4.922H2.72a.487.487 0 01-.482-.492c0-.272.216-.492.482-.492h1.445c.266 0 .482.22.482.492a.487.487 0 01-.482.492zm0 1.969H2.72a.487.487 0 01-.482-.492c0-.272.216-.492.482-.492h1.445c.266 0 .482.22.482.492a.487.487 0 01-.482.492zm0 1.969H2.72a.487.487 0 01-.482-.492c0-.272.216-.492.482-.492h1.445c.266 0 .482.22.482.492a.487.487 0 01-.482.492z"/></symbol><symbol viewBox="0 0 11 13" id="calc" xmlns="http://www.w3.org/2000/svg"><path d="M8.37 6.462h-.698v3.563h.698V6.462zm-5.58 2.85h-.698v.713h.698v-.713zm2.79 0h-.698v.713h.698v-.713zm0-2.85h-.698v.712h.698v-.712zm-2.79 0h-.698v.712h.698v-.712z"/><path d="M9.416 0h-8.37A1.06 1.06 0 000 1.069v10.025c0 .59.47 1.069 1.046 1.069h8.37a1.06 1.06 0 001.047-1.07V1.07c0-.591-.47-1.07-1.047-1.07zM3.488 10.381a.352.352 0 01-.35.357H1.745a.352.352 0 01-.349-.357V8.956c0-.197.156-.356.349-.356H3.14c.193 0 .349.159.349.356v1.425zm0-2.85a.352.352 0 01-.35.356H1.745a.352.352 0 01-.349-.356V6.105c0-.197.156-.356.349-.356H3.14c.193 0 .349.16.349.356v1.426zm2.79 2.85a.352.352 0 01-.35.357H4.535a.352.352 0 01-.349-.357V8.956c0-.197.156-.356.349-.356H5.93c.193 0 .349.159.349.356v1.425zm0-2.85a.352.352 0 01-.35.356H4.535a.352.352 0 01-.349-.356V6.105c0-.197.156-.356.349-.356H5.93c.193 0 .349.16.349.356v1.426zm2.79 2.85a.352.352 0 01-.35.357H7.325a.352.352 0 01-.349-.357V6.105c0-.197.156-.356.349-.356H8.72c.193 0 .349.16.349.356v4.276zm0-5.701a.352.352 0 01-.35.356H1.745a.352.352 0 01-.349-.356V1.782c0-.197.156-.357.349-.357H8.72c.193 0 .349.16.349.357V4.68z"/><path d="M8.37 2.138H2.092v2.186H8.37V2.138z"/></symbol><symbol viewBox="0 0 13 13" id="conversion" xmlns="http://www.w3.org/2000/svg"><path d="M11.612.104L9.197 2.52l.998.998a.355.355 0 11-.503.503l-.998-.999L7.68 4.037l.998.998a.356.356 0 11-.503.503l-.998-.999-1.015 1.015.999.998a.356.356 0 11-.503.503l-.998-.999-1.015 1.015.998.998a.356.356 0 11-.502.502l-.998-.998-1.015 1.015.998.998a.356.356 0 01-.502.502l-.998-.998L.21 11.506a.356.356 0 00.252.607h11.401c.197 0 .356-.16.356-.356V.356a.356.356 0 00-.607-.252zM9.919 9.458a.355.355 0 01-.355.355H6.34a.356.356 0 01-.251-.606l3.224-3.224a.356.356 0 01.606.251v3.224z"/></symbol><symbol viewBox="0 0 10 16" id="fb" xmlns="http://www.w3.org/2000/svg"><path d="M7.117 3.898c.021-.024.12-.101.508-.101h1.27c.414 0 .75-.335.75-.746V.845A.748.748 0 008.898.1L7.01.097C5.844.097 4.853.479 4.144 1.2c-.706.72-1.079 1.723-1.079 2.903v1.19H1.621a.748.748 0 00-.75.745v2.377c0 .41.336.745.75.745h1.444v5.546c0 .411.337.745.75.745h2.476c.414 0 .75-.334.75-.745V9.162h1.765c.414 0 .75-.334.75-.745l.001-2.376a.746.746 0 00-.757-.745H7.04v-.94c0-.307.042-.418.077-.457z"/></symbol><symbol viewBox="0 0 8 10" id="gdz" xmlns="http://www.w3.org/2000/svg"><path d="M6.875 0H1.289C.58 0 0 .578 0 1.29v7.304C0 9.369.63 10 1.406 10h5.469a.312.312 0 100-.625H1.406a.782.782 0 010-1.563h5.469c.173 0 .313-.14.313-.312V.312A.312.312 0 006.875 0zM.625 7.255V1.289c0-.367.297-.664.664-.664h.02c.054 0 .097.044.097.098v6.37c0 .051-.04.094-.09.097a1.396 1.396 0 00-.55.152.097.097 0 01-.141-.087z"/><path d="M6.875 8.281H1.406a.312.312 0 100 .625h5.469a.312.312 0 100-.625z"/></symbol><symbol viewBox="0 0 838 901" id="new-products__circle" xmlns="http://www.w3.org/2000/svg"><path d="M551.076 338.434c78.807 93.206 135.235 190.143 162.78 271.493 13.774 40.677 20.308 77.407 18.843 107.798-1.465 30.388-10.92 54.338-29.018 69.64s-43.286 20.643-73.495 17.036c-30.212-3.607-65.344-16.158-103.165-36.502-75.638-40.687-161.845-112.445-240.653-205.652-78.807-93.206-135.235-190.143-162.78-271.493-13.774-40.677-20.308-77.407-18.843-107.798 1.465-30.388 10.92-54.338 29.018-69.64s43.286-20.643 73.495-17.036c30.212 3.608 65.344 16.158 103.165 36.502 75.638 40.687 161.845 112.445 240.653 205.652z"/><defs><linearGradient id="ipaint0_linear" x1="217.5" y1="460" x2="520.488" y2="382.92" gradientUnits="userSpaceOnUse"><stop stop-color="#ECDABC"/><stop offset="1" stop-color="#ECDABC" stop-opacity="0"/></linearGradient></defs></symbol><symbol viewBox="0 0 10 18" id="od" xmlns="http://www.w3.org/2000/svg"><path d="M4.936 2.654c1.004 0 1.82.842 1.82 1.876 0 1.033-.816 1.874-1.82 1.874S3.115 5.563 3.115 4.53c0-1.035.817-1.876 1.82-1.876zm0 6.403c2.425 0 4.398-2.03 4.398-4.527C9.334 2.032 7.362 0 4.936 0 2.51 0 .537 2.032.537 4.53c0 2.496 1.973 4.527 4.399 4.527zm1.779 3.694a8.105 8.105 0 002.554-1.088c.29-.188.494-.486.57-.829a1.36 1.36 0 00-.165-1.001 1.31 1.31 0 00-.346-.376 1.27 1.27 0 00-.962-.226c-.167.03-.326.092-.47.185a5.45 5.45 0 01-5.921 0 1.265 1.265 0 00-.973-.17 1.27 1.27 0 00-.459.21 1.31 1.31 0 00-.345.377 1.36 1.36 0 00-.166 1c.076.344.28.642.57.83a8.114 8.114 0 002.553 1.088L.697 15.284a1.347 1.347 0 00-.378.938c0 .352.136.69.378.938a1.263 1.263 0 001.822 0l2.416-2.488 2.417 2.488a1.255 1.255 0 001.821 0 1.329 1.329 0 00.379-.938 1.359 1.359 0 00-.379-.938l-2.458-2.533z"/></symbol><symbol viewBox="0 0 13 13" id="orthography" xmlns="http://www.w3.org/2000/svg"><path d="M4.471 10.598L1.723 7.85 8.37 1.205l2.748 2.748-6.647 6.645zM1.467 8.334l2.52 2.52-3.779 1.259 1.259-3.779zm10.496-5.223l-.476.477L8.735.837 9.212.36a1.23 1.23 0 011.739 0l1.012 1.013a1.236 1.236 0 010 1.738z"/></symbol><symbol viewBox="0 0 10 10" id="reverse" xmlns="http://www.w3.org/2000/svg"><path d="M8.968 2.41a.52.52 0 000-.733v-.001L7.544.254A.52.52 0 106.81.99l.534.534h-6.1a.52.52 0 000 1.04h6.1l-.548.548a.52.52 0 10.737.737l1.436-1.437v-.001zM3.2 8.6a.516.516 0 00-.153-.368L2.5 7.684h6.1a.52.52 0 000-1.04H2.5l.533-.534a.52.52 0 10-.736-.736l-.113.113-.277.277-.357.357c-.118.116-.232.237-.352.353a7.553 7.553 0 00-.336.346.503.503 0 00-.08.584c.065.116.172.208.265.302.113.114.228.227.343.34l.407.409.345.343.166.167.003.002A.52.52 0 003.2 8.6z"/></symbol><symbol viewBox="0 0 12 13" id="search" xmlns="http://www.w3.org/2000/svg"><path d="M8.128 7.961A4.487 4.487 0 007.06 1.712 4.47 4.47 0 00.823 2.781 4.487 4.487 0 001.89 9.029a4.469 4.469 0 004.862.202l3.3 3.285a.935.935 0 001.323.034.94.94 0 000-1.36L8.128 7.96zm-3.655.306a2.889 2.889 0 01-2.888-2.89 2.889 2.889 0 012.886-2.891A2.888 2.888 0 017.357 5.37a2.89 2.89 0 01-2.882 2.896h-.002z"/></symbol><symbol viewBox="0 0 16 16" id="trans" xmlns="http://www.w3.org/2000/svg"><path d="M13.893 6.31H8.192c-.9 0-1.632.749-1.632 1.668v3.165L5.083 12.22a.456.456 0 000 .737l1.495 1.091c.117.803.796 1.421 1.614 1.421h5.701c.9 0 1.632-.748 1.632-1.667V7.978c0-.92-.732-1.667-1.632-1.667zm-1.917 6.37c-.104 0-.185-.034-.209-.127l-.18-.646h-1.089l-.18.646c-.024.092-.105.126-.21.126-.165 0-.389-.106-.389-.262 0-.01.005-.029.01-.048l.917-3.054c.042-.145.218-.214.394-.214.18 0 .357.069.4.214l.916 3.054c.005.02.01.034.01.048 0 .15-.223.262-.39.262z"/><path d="M10.627 11.412h.827l-.414-1.49-.413 1.49zM5.673 7.978a2.6 2.6 0 01.556-1.61c-.507 0-.976-.161-1.363-.436a2.345 2.345 0 01-1.363.437.253.253 0 01-.25-.256c0-.141.112-.256.25-.256.354 0 .686-.1.97-.274a2.462 2.462 0 01-.625-1.405h-.345a.253.253 0 01-.25-.256c0-.14.112-.255.25-.255h1.113v-.62c0-.142.112-.257.25-.257s.25.115.25.256v.62h1.113c.138 0 .25.115.25.256a.253.253 0 01-.25.256h-.345a2.462 2.462 0 01-.625 1.405c.284.174.615.274.97.274.132 0 .24.105.25.238a2.48 2.48 0 011.713-.69h1.156V4.326l1.477-1.078a.456.456 0 000-.737L9.33 1.42C9.213.618 8.534 0 7.717 0H2.015C1.115 0 .384.748.384 1.667v5.825c0 .92.732 1.667 1.631 1.667h3.658V7.978z"/><path d="M4.866 5.264c.274-.29.46-.667.514-1.086H4.352c.054.419.24.796.514 1.086z"/></symbol><symbol viewBox="0 0 18 15" id="twitter" xmlns="http://www.w3.org/2000/svg"><path d="M6.989 14.904a14.24 14.24 0 01-2.253-.183c-1.34-.216-2.698-.935-3.082-1.15l-1.008-.564 1.091-.368c1.192-.401 1.917-.65 2.815-1.04-.899-.447-1.592-1.25-1.925-2.287l-.254-.789.208.033a3.86 3.86 0 01-.474-.599c-.429-.668-.656-1.485-.608-2.185l.048-.69.402.16a3.918 3.918 0 01-.364-1.047 4.071 4.071 0 01.414-2.683l.35-.66.47.578c1.482 1.825 3.36 2.908 5.59 3.225a3.505 3.505 0 01.203-1.82 3.385 3.385 0 011.352-1.589A3.984 3.984 0 0112.32.653c.88.055 1.68.393 2.314.978.31-.082.539-.17.848-.29.185-.071.396-.153.66-.246l.97-.343-.633 1.854a3.14 3.14 0 01.13-.008l1.037-.049-.613.859-.056.082c-.05.077-.111.172-.953 1.323a1.66 1.66 0 00-.296 1.057c.075 1.496-.104 2.85-.532 4.023a7.132 7.132 0 01-1.865 2.832c-1.03.95-2.344 1.601-3.905 1.934-.765.163-1.587.245-2.438.245z"/></symbol><symbol viewBox="0 0 18 11" id="vk" xmlns="http://www.w3.org/2000/svg"><path d="M15.502 7.115c.564.565 1.16 1.096 1.665 1.719.224.276.435.56.596.881.23.457.022.958-.376.985H14.91c-.64.054-1.149-.21-1.578-.66-.342-.357-.66-.739-.99-1.108a2.335 2.335 0 00-.446-.407c-.337-.226-.63-.157-.824.205-.197.368-.242.776-.26 1.186-.028.6-.204.756-.79.784-1.251.06-2.44-.135-3.543-.782-.974-.571-1.728-1.378-2.384-2.29-1.28-1.78-2.259-3.732-3.14-5.741-.197-.453-.052-.695.434-.704a67.173 67.173 0 012.425 0c.329.005.546.198.672.516A15.57 15.57 0 006.13 4.823c.18.26.362.518.622.7.287.203.505.136.64-.193.087-.208.124-.432.143-.656.064-.766.072-1.532-.04-2.296-.068-.478-.33-.786-.795-.877-.236-.045-.201-.135-.086-.274.2-.24.386-.388.76-.388h2.797c.441.089.54.292.6.747l.003 3.19c-.006.177.086.7.395.815.247.084.41-.12.558-.28.67-.73 1.149-1.593 1.577-2.486.189-.393.352-.8.51-1.208.118-.302.3-.45.633-.445l2.694.003c.079 0 .16 0 .238.015.454.08.579.28.438.734-.22.714-.65 1.309-1.07 1.905-.45.639-.93 1.255-1.376 1.896-.41.586-.377.881.131 1.39z"/></symbol></svg>