<svg width="126" height="33" viewBox="0 0 126 33" fill="none" xmlns="http://www.w3.org/2000/svg">
<path d="M15.177 32.61C10.7593 32.61 7.12535 31.0852 4.27521 28.0355C1.42507 24.9574 0 21.2807 0 17.0055C0 12.4738 1.39657 8.74007 4.18971 5.80442C6.98284 2.86878 10.574 1.40095 14.9632 1.40095C19.324 1.40095 22.8866 2.95428 25.6513 6.06094C28.4444 9.13909 29.841 12.8443 29.841 17.1765C29.841 21.5372 28.4302 25.1996 25.6085 28.1638C22.7869 31.1279 19.3097 32.61 15.177 32.61ZM16.5451 30.3014C18.9392 30.3014 20.9058 29.3893 22.4449 27.5653C23.9839 25.7412 24.7535 23.5323 24.7535 20.9387C24.7535 16.0934 23.6704 12.0177 21.5043 8.71157C19.3382 5.3769 16.5593 3.70957 13.1677 3.70957C10.745 3.70957 8.79268 4.59311 7.31061 6.3602C5.82854 8.09879 5.0875 10.3646 5.0875 13.1578C5.0875 17.9745 6.1563 22.036 8.29391 25.3421C10.4315 28.6483 13.1819 30.3014 16.5451 30.3014Z" fill="#ECDABC"/>
<path d="M55.3927 29.3608C55.5922 29.6173 56.0055 29.9451 56.6325 30.3441C57.2595 30.7432 57.5731 31.1137 57.5731 31.4557V31.584C57.5731 31.983 57.3166 32.1825 56.8035 32.1825H49.9204C49.4359 32.1825 49.1936 31.9687 49.1936 31.5412V31.4557C49.1936 31.1992 49.3932 30.8857 49.7922 30.5151C50.2197 30.1161 50.291 29.7314 50.0059 29.3608L44.5337 22.0502L41.6265 24.7436V28.6341C41.6265 29.2326 41.9115 29.7884 42.4816 30.3014C43.0801 30.7859 43.3794 31.1564 43.3794 31.4129V31.5412C43.3794 31.9687 43.0658 32.1825 42.4388 32.1825H35.9405C35.342 32.1825 35.0427 31.9687 35.0427 31.5412V31.4129C35.0427 31.1279 35.2992 30.7432 35.8122 30.2586C36.3538 29.7741 36.6245 29.2326 36.6245 28.6341V6.10369C36.6245 5.41965 36.3253 4.80687 35.7267 4.26535C35.1282 3.72382 34.8289 3.36755 34.8289 3.19654V3.06829C34.8289 2.78327 35.0712 2.52676 35.5557 2.29875L40.0875 0.161144C40.572 -0.0383669 40.9425 -0.0526183 41.199 0.11839C41.484 0.260897 41.6265 0.503159 41.6265 0.845176V21.922L49.3219 15.2099C49.7779 14.8109 49.7209 14.2978 49.1509 13.6708C48.6094 13.0153 48.3386 12.602 48.3386 12.431V12.3027C48.3386 11.8752 48.5951 11.6615 49.1081 11.6615H54.5804C55.0649 11.6615 55.3072 11.861 55.3072 12.26V12.3882C55.3072 12.6733 55.1362 12.944 54.7942 13.2005C54.4807 13.4571 54.0246 13.7706 53.4261 14.1411C52.8276 14.4831 52.3431 14.8251 51.9725 15.1671L47.7828 19.0148L55.3927 29.3608Z" fill="#ECDABC"/>
<path d="M81.5884 29.3608C81.7879 29.6173 82.2012 29.9451 82.8282 30.3441C83.4552 30.7432 83.7688 31.1137 83.7688 31.4557V31.584C83.7688 31.983 83.5122 32.1825 82.9992 32.1825H76.1161C75.6316 32.1825 75.3893 31.9687 75.3893 31.5412V31.4557C75.3893 31.1992 75.5889 30.8857 75.9879 30.5151C76.4154 30.1161 76.4866 29.7314 76.2016 29.3608L70.7294 22.0502L67.8222 24.7436V28.6341C67.8222 29.2326 68.1072 29.7884 68.6773 30.3014C69.2758 30.7859 69.5751 31.1564 69.5751 31.4129V31.5412C69.5751 31.9687 69.2615 32.1825 68.6345 32.1825H62.1362C61.5377 32.1825 61.2384 31.9687 61.2384 31.5412V31.4129C61.2384 31.1279 61.4949 30.7432 62.0079 30.2586C62.5494 29.7741 62.8202 29.2326 62.8202 28.6341V6.10369C62.8202 5.41965 62.521 4.80687 61.9224 4.26535C61.3239 3.72382 61.0246 3.36755 61.0246 3.19654V3.06829C61.0246 2.78327 61.2669 2.52676 61.7514 2.29875L66.2831 0.161144C66.7677 -0.0383669 67.1382 -0.0526183 67.3947 0.11839C67.6797 0.260897 67.8222 0.503159 67.8222 0.845176V21.922L75.5176 15.2099C75.9736 14.8109 75.9166 14.2978 75.3466 13.6708C74.8051 13.0153 74.5343 12.602 74.5343 12.431V12.3027C74.5343 11.8752 74.7908 11.6615 75.3038 11.6615H80.7761C81.2606 11.6615 81.5029 11.861 81.5029 12.26V12.3882C81.5029 12.6733 81.3319 12.944 80.9899 13.2005C80.6763 13.4571 80.2203 13.7706 79.6218 14.1411C79.0233 14.4831 78.5387 14.8251 78.1682 15.1671L73.9785 19.0148L81.5884 29.3608Z" fill="#ECDABC"/>
<path d="M103.248 25.8979C103.476 25.5844 103.761 25.4704 104.103 25.5559C104.473 25.6414 104.644 25.8979 104.616 26.3254C104.388 27.836 103.504 29.2611 101.965 30.6007C100.426 31.9402 98.4167 32.61 95.9371 32.61C93.0299 32.61 90.6073 31.6124 88.6692 29.6174C86.7596 27.6223 85.8048 25.0001 85.8048 21.751C85.8048 18.7298 86.7881 16.2217 88.7547 14.2266C90.7498 12.2315 93.1724 11.2339 96.0226 11.2339C98.5877 11.2339 100.554 11.8752 101.922 13.1578C103.319 14.4118 104.017 15.8654 104.017 17.5185C104.017 19.0006 103.29 19.9981 101.837 20.5112L91.4908 24.3161C92.0324 25.7982 92.8447 26.9525 93.9277 27.779C95.0108 28.6056 96.2933 29.0188 97.7754 29.0188C99.058 29.0188 100.17 28.7338 101.11 28.1638C102.079 27.5652 102.792 26.81 103.248 25.8979ZM95.1675 12.8585C93.828 12.8585 92.7592 13.4998 91.9611 14.7824C91.1631 16.0649 90.7641 17.7465 90.7641 19.8271C90.7641 20.7962 90.8496 21.7082 91.0206 22.5633L98.1174 19.4851C98.8585 19.1431 99.229 18.5446 99.229 17.6895C99.229 16.6635 98.83 15.6089 98.0319 14.5259C97.2624 13.4143 96.3076 12.8585 95.1675 12.8585Z" fill="#ECDABC"/>
<path d="M121.467 11.2339C122.693 11.2339 123.647 11.576 124.331 12.26C125.044 12.944 125.4 13.7991 125.4 14.8251C125.4 16.6207 124.659 17.5185 123.177 17.5185C122.55 17.5185 122.066 17.3475 121.724 17.0055C121.382 16.6635 121.168 16.2787 121.082 15.8512C120.997 15.4236 120.797 15.0389 120.484 14.6969C120.17 14.3548 119.743 14.1838 119.201 14.1838C118.261 14.1838 117.534 14.6969 117.021 15.7229C116.508 16.749 116.251 18.003 116.251 19.4851V28.6341C116.251 29.2611 116.579 29.8169 117.235 30.3014C117.89 30.7859 118.218 31.1564 118.218 31.4129V31.584C118.218 31.983 117.919 32.1825 117.32 32.1825H110.694C110.095 32.1825 109.796 31.983 109.796 31.584V31.4129C109.796 31.1564 110.067 30.7859 110.608 30.3014C111.15 29.8169 111.42 29.2611 111.42 28.6341V17.1337C111.42 16.4782 111.107 15.9224 110.48 15.4664C109.881 14.9819 109.582 14.6114 109.582 14.3548V14.2266C109.582 13.9131 109.839 13.6138 110.352 13.3288L114.541 11.4049C115.368 11.0059 115.781 11.2482 115.781 12.1317V15.4664C116.75 12.6448 118.645 11.2339 121.467 11.2339Z" fill="#ECDABC"/>
</svg>
