<svg width="20" height="20" viewBox="0 0 20 20" fill="none" xmlns="http://www.w3.org/2000/svg">
<path d="M0 15.4839V17.0968H9.03226L10 17.742L10.9677 17.0968H20V15.4839H0Z" fill="#FCE0B0"/>
<path d="M11.2903 2.25806C10.5777 2.25806 10 2.8358 10 3.54838C10 2.8358 9.42225 2.25806 8.70968 2.25806H0V15.4839H8.70968C9.42225 15.4839 10 16.0616 10 16.7742C10 16.0616 10.5777 15.4839 11.2903 15.4839H20V2.25806H11.2903Z" fill="#FCB641"/>
<path d="M10 3.54838C10 2.8358 9.42225 2.25806 8.70968 2.25806H0V15.4839H8.70968C9.42225 15.4839 10 16.0616 10 16.7742V3.54838Z" fill="#FCC365"/>
<path d="M13.871 5.16128L12.9033 4.51612L11.9355 5.16128V2.25806H13.871V5.16128Z" fill="#9BC53D"/>
<path d="M11.6133 6.77423H16.7746V7.41939H11.6133V6.77423Z" fill="#E6A63B"/>
<path d="M0.967773 11.9355H4.83874V12.5806H0.967773V11.9355Z" fill="#F0AE41"/>
<path d="M11.6133 8.70972H13.5488V9.35488H11.6133V8.70972Z" fill="#E6A63B"/>
<path d="M14.1943 8.70972H18.7105V9.35488H14.1943V8.70972Z" fill="#E6A63B"/>
<path d="M15.4844 10.6452H18.7102V11.2904H15.4844V10.6452Z" fill="#E6A63B"/>
<path d="M11.6133 10.6452H14.8391V11.2904H11.6133V10.6452Z" fill="#E6A63B"/>
<path d="M0.967773 13.5483H2.90325V14.1935H0.967773V13.5483Z" fill="#F0AE41"/>
<path d="M3.54883 13.5483H9.0327V14.1935H3.54883V13.5483Z" fill="#F0AE41"/>
<path d="M17.4189 12.5807H18.7093V13.2259H17.4189V12.5807Z" fill="#E6A63B"/>
<path d="M11.6133 12.5807H16.7746V13.2259H11.6133V12.5807Z" fill="#E6A63B"/>
<path d="M5.4834 11.9355H9.03178V12.5806H5.4834V11.9355Z" fill="#F0AE41"/>
<path d="M17.4189 6.77423H18.7093V7.41939H17.4189V6.77423Z" fill="#E6A63B"/>
<path d="M8.38682 10.6451H1.61262C1.43463 10.6451 1.29004 10.5005 1.29004 10.3225V3.87092C1.29004 3.69293 1.43463 3.54834 1.61262 3.54834H8.38682C8.5648 3.54834 8.7094 3.69293 8.7094 3.87092V10.3225C8.7094 10.5005 8.5648 10.6451 8.38682 10.6451Z" fill="#D7E8B1"/>
<path d="M4.51622 5.6452C4.51622 6.09064 4.15521 6.45165 3.70977 6.45165C3.26433 6.45165 2.90332 6.09064 2.90332 5.6452C2.90332 5.19976 3.26433 4.83875 3.70977 4.83875C4.15521 4.83875 4.51622 5.19976 4.51622 5.6452Z" fill="#FCB641"/>
<path d="M8.38682 10.6452H1.61262C1.43463 10.6452 1.29004 10.5006 1.29004 10.3226V9.35485H4.9501C5.07816 9.35485 5.19424 9.27909 5.24559 9.16158L5.78191 7.93521C5.83358 7.81771 5.94935 7.74194 6.07772 7.74194H8.7094V10.3226C8.7094 10.5006 8.5648 10.6452 8.38682 10.6452Z" fill="#9BC53D"/>
<path d="M6.45117 4.83875H7.74149V5.48391H6.45117V4.83875Z" fill="#BAD481"/>
<path d="M5.16113 6.12903H6.45145V6.77419H5.16113V6.12903Z" fill="#BAD481"/>
<path d="M16.7744 3.22577H18.7099V3.87093H16.7744V3.22577Z" fill="#E6A63B"/>
</svg>
