<svg width="19" height="19" viewBox="0 0 19 19" fill="none" xmlns="http://www.w3.org/2000/svg">
<g clip-path="url(#clip0)">
<path d="M14.8557 19C15.5809 19 16.1689 18.4121 16.1689 17.6868C16.1689 15.6973 15.5318 13.9056 14.2211 12.2091C12.0985 9.46167 8.74046 7.62349 6.85667 5.18522C5.90174 3.94914 5.45698 2.71878 5.45698 1.31323C5.45698 0.587924 4.86902 0 4.14376 0C3.41849 0 2.83057 0.587924 2.83057 1.31319C2.83057 3.30266 3.46766 5.09445 4.77829 6.7909C6.90095 9.53833 10.259 11.3765 12.1428 13.8148C13.0977 15.0509 13.5424 16.2812 13.5424 17.6868C13.5424 18.4121 14.1304 19 14.8557 19Z" fill="#4EE15D"/>
<path d="M13.9268 2.36063H9.49999C9.06043 2.36063 8.7041 2.00431 8.7041 1.56474C8.7041 1.12518 9.06043 0.76886 9.49999 0.76886H13.9268C14.3664 0.76886 14.7227 1.12518 14.7227 1.56474C14.7227 2.00431 14.3664 2.36063 13.9268 2.36063Z" fill="#FF8898"/>
<path d="M9.50008 2.36063H5.07323C4.63367 2.36063 4.27734 2.00431 4.27734 1.56474C4.27734 1.12518 4.63367 0.76886 5.07323 0.76886H9.50008C9.93964 0.76886 10.296 1.12518 10.296 1.56474C10.296 2.00431 9.93964 2.36063 9.50008 2.36063Z" fill="#F1E54C"/>
<path d="M9.49953 5.59802H6.05467C5.61511 5.59802 5.25879 5.2417 5.25879 4.80214C5.25879 4.36258 5.61511 4.00626 6.05467 4.00626H9.49953C9.93909 4.00626 10.2954 4.36258 10.2954 4.80214C10.2954 5.2417 9.93909 5.59802 9.49953 5.59802Z" fill="#FF8898"/>
<path d="M12.9449 5.59802H9.49999C9.06043 5.59802 8.7041 5.2417 8.7041 4.80214C8.7041 4.36258 9.06043 4.00626 9.49999 4.00626H12.9449C13.3844 4.00626 13.7407 4.36258 13.7407 4.80214C13.7407 5.2417 13.3844 5.59802 12.9449 5.59802Z" fill="#F1E54C"/>
<path d="M9.50008 18.2311H5.07323C4.63367 18.2311 4.27734 17.8748 4.27734 17.4352C4.27734 16.9956 4.63367 16.6393 5.07323 16.6393H9.50008C9.93964 16.6393 10.296 16.9956 10.296 17.4352C10.296 17.8748 9.93964 18.2311 9.50008 18.2311Z" fill="#EDA1AB"/>
<path d="M5.07323 16.6394C4.63367 16.6394 4.27734 16.9957 4.27734 17.4353C4.27734 17.8748 4.63367 18.2311 5.07323 18.2311H6.54276C6.6624 17.7037 6.5402 17.4296 6.71398 16.6394H5.07323Z" fill="#E8899E"/>
<path d="M13.9268 18.2311H9.49999C9.06043 18.2311 8.7041 17.8748 8.7041 17.4352C8.7041 16.9956 9.06043 16.6393 9.49999 16.6393H13.9268C14.3664 16.6393 14.7227 16.9956 14.7227 17.4352C14.7227 17.8748 14.3664 18.2311 13.9268 18.2311Z" fill="#F1E54C"/>
<path d="M12.9449 14.9937H9.49999C9.06043 14.9937 8.7041 14.6374 8.7041 14.1979C8.7041 13.7583 9.06043 13.402 9.49999 13.402H12.9449C13.3844 13.402 13.7407 13.7583 13.7407 14.1979C13.7407 14.6374 13.3844 14.9937 12.9449 14.9937Z" fill="#FF8898"/>
<path d="M9.49953 14.9937H6.05467C5.61511 14.9937 5.25879 14.6374 5.25879 14.1979C5.25879 13.7583 5.61511 13.402 6.05467 13.402H9.49953C9.93909 13.402 10.2954 13.7583 10.2954 14.1979C10.2954 14.6374 9.93909 14.9937 9.49953 14.9937Z" fill="#F1E54C"/>
<path d="M6.05467 14.9937H7.42382C7.80082 14.4142 8.27723 13.8845 8.76855 13.402H6.05467C5.61511 13.402 5.25879 13.7583 5.25879 14.1979C5.25879 14.6374 5.61511 14.9937 6.05467 14.9937Z" fill="#F2D98D"/>
<path d="M12.9448 4.00626H11.5757C11.1987 4.58576 10.7223 5.11545 10.231 5.59802H12.9448C13.3844 5.59802 13.7407 5.2417 13.7407 4.80214C13.7407 4.36258 13.3844 4.00626 12.9448 4.00626Z" fill="#F2D98D"/>
<path d="M13.9268 2.36063C14.3664 2.36063 14.7227 2.00431 14.7227 1.56474C14.7227 1.12518 14.3664 0.76886 13.9268 0.76886H12.4573C12.3377 1.29626 12.4599 1.57039 12.2861 2.36063H13.9268Z" fill="#E8899E"/>
<path d="M4.14376 19C3.41849 19 2.83057 18.4121 2.83057 17.6868C2.83057 15.6973 3.46766 13.9056 4.77829 12.2091C6.90095 9.46167 10.259 7.62349 12.1428 5.18522C13.0977 3.94914 13.5424 2.71878 13.5424 1.31323C13.5424 0.587924 14.1304 0 14.8557 0C15.5809 0 16.1689 0.587924 16.1689 1.31319C16.1689 3.30266 15.5318 5.09445 14.2211 6.7909C12.0985 9.53833 8.74046 11.3765 6.85667 13.8148C5.90174 15.0509 5.45698 16.2812 5.45698 17.6868C5.45698 18.4121 4.86902 19 4.14376 19Z" fill="#72F777"/>
</g>
<defs>
<clipPath id="clip0">
<rect width="19" height="19" fill="white"/>
</clipPath>
</defs>
</svg>
