<svg width="20" height="19" viewBox="0 0 20 19" fill="none" xmlns="http://www.w3.org/2000/svg">
<path d="M10.4004 18.4062V7.71875H9.77539V18.4062H9.15039V19H11.0254V18.4062H10.4004Z" fill="#8CB337"/>
<path d="M3.83789 17.89L9.73572 7.86383L9.19006 7.57391L3.25256 17.6677C3.22662 17.7119 3.21289 17.7617 3.21289 17.8125V18.4062H2.58789V19H4.46289V18.4062H3.83789V17.89Z" fill="#8CB337"/>
<path d="M17.2757 18.4062V17.8125C17.2757 17.7609 17.2614 17.71 17.2345 17.6652L10.9845 7.2746L10.4419 7.56915L16.6507 17.8915V18.4062H16.0257V19H17.9007V18.4062H17.2757Z" fill="#8CB337"/>
<path d="M11.3379 6.23438V7.125C11.3379 7.78079 10.7782 8.3125 10.0879 8.3125C9.39758 8.3125 8.83789 7.78079 8.83789 7.125L11.3379 6.23438Z" fill="#33C0DB"/>
<path d="M2.88592 7.03544L2.39627 5.56817L2.70221 5.4622L2.48874 4.90469L1.31396 5.31087L1.52744 5.86867L1.80865 5.77126L2.29022 7.21461L2.88592 7.03544Z" fill="#8CB337"/>
<path d="M8.789 4.45315L8.46826 3.6163L11.0255 2.245L11.9123 3.0572L8.789 4.45315Z" fill="#FCB641"/>
<path d="M16.9463 3.58009L17.3063 4.51971L8.97055 7.09649C8.81064 7.14606 8.63776 7.0659 8.58038 6.91573L7.71811 4.6651C7.66058 4.51492 7.73871 4.34808 7.89465 4.28835L16.0235 1.17218L16.7159 2.97952L16.9463 3.58009Z" fill="#9BC53D"/>
<path d="M8.57629 6.90655L5.26071 7.80007L4.57666 6.01462L7.72134 4.67462L8.57629 6.90655Z" fill="#33C0DB"/>
<path d="M16.2106 0.791439L16.7979 0.588352C16.9601 0.532253 17.1394 0.611835 17.1984 0.765926L18.4809 4.11345C18.54 4.26754 18.4562 4.43801 18.294 4.49411L17.7069 4.69706C17.5447 4.7533 17.3654 4.67372 17.3063 4.51963L16.0238 1.1721C15.9648 1.01801 16.0485 0.847538 16.2106 0.791439Z" fill="#33C0DB"/>
<path d="M18.6676 3.73327L18.3739 3.83474L17.3052 1.04502L17.5989 0.943546C18.4098 0.663196 19.3064 1.06009 19.6016 1.83055C19.8967 2.601 19.4785 3.45263 18.6676 3.73327Z" fill="#FCB641"/>
<path d="M0.780762 7.39047L4.59836 6.07062L5.23954 7.74445L1.42209 9.0643L0.780762 7.39047Z" fill="#9BC53D"/>
<path d="M0.273438 6.93411L0.860443 6.73117L1.92963 9.52119L1.34262 9.72413L0.273438 6.93411Z" fill="#FCB641"/>
<path d="M4.77539 0H5.40039V0.59375H4.77539V0Z" fill="#FCE0B0"/>
<path d="M4.77539 1.1875H5.40039V1.78125H4.77539V1.1875Z" fill="#FCE0B0"/>
<path d="M4.15039 0.59375H4.77539V1.1875H4.15039V0.59375Z" fill="#FCE0B0"/>
<path d="M5.40039 0.59375H6.02539V1.1875H5.40039V0.59375Z" fill="#FCE0B0"/>
<path d="M17.2754 8.3125H17.9004V8.90625H17.2754V8.3125Z" fill="#FCE0B0"/>
<path d="M17.2754 9.5H17.9004V10.0938H17.2754V9.5Z" fill="#FCE0B0"/>
<path d="M16.6504 8.90625H17.2754V9.5H16.6504V8.90625Z" fill="#FCE0B0"/>
<path d="M17.9004 8.90625H18.5254V9.5H17.9004V8.90625Z" fill="#FCE0B0"/>
<path d="M1.33789 11.2812H1.96289V11.875H1.33789V11.2812Z" fill="#FCE0B0"/>
<path d="M1.33789 12.4688H1.96289V13.0625H1.33789V12.4688Z" fill="#FCE0B0"/>
<path d="M0.712891 11.875H1.33789V12.4688H0.712891V11.875Z" fill="#FCE0B0"/>
<path d="M1.96289 11.875H2.58789V12.4688H1.96289V11.875Z" fill="#FCE0B0"/>
</svg>
