<svg width="22" height="20" viewBox="0 0 22 20" fill="none" xmlns="http://www.w3.org/2000/svg">
<g clip-path="url(#clip0)">
<path d="M13.6617 5.80641V1.93544H8.69396V5.80641L4.15729 17.8616C4.10704 17.9958 4.08105 18.1371 4.08105 18.279V18.7096C4.08105 19.4222 4.71658 20 5.50041 20H16.8552C17.6391 20 18.2746 19.4222 18.2746 18.7096V18.279C18.2746 18.1371 18.2486 17.9958 18.1984 17.8613L13.6617 5.80641Z" fill="#96FEAD"/>
<path d="M14.3708 1.93548H7.98374C7.78796 1.93548 7.62891 1.79089 7.62891 1.6129V0.322581C7.62891 0.144594 7.78796 0 7.98374 0H14.3708C14.5666 0 14.7257 0.144594 14.7257 0.322581V1.6129C14.7257 1.79089 14.5666 1.93548 14.3708 1.93548Z" fill="#29D54F"/>
<path d="M12.9513 11.0968C11.0675 10.3136 9.80785 9.17169 7.66669 8.53613L4.15729 17.8617C4.10704 17.9959 4.08105 18.1372 4.08105 18.2791V18.7097C4.08105 19.4223 4.71658 20 5.50041 20H16.8552C17.6391 20 18.2746 19.4223 18.2746 18.7097V18.2791C18.2746 18.1372 18.2486 17.9959 18.1984 17.8614L15.9359 11.8494C15.0618 11.7536 14.3203 11.5816 13.6614 11.3623" fill="#29D54F"/>
<path d="M10.8223 5.48389H13.661V6.12905H10.8223V5.48389Z" fill="#BDFFCC"/>
<path d="M10.1134 13.2258C10.1134 13.7602 9.63677 14.1936 9.04889 14.1936C8.46102 14.1936 7.98438 13.7602 7.98438 13.2258C7.98438 12.6914 8.46102 12.2581 9.04889 12.2581C9.63677 12.2581 10.1134 12.6914 10.1134 13.2258Z" fill="#BDFFCC"/>
<path d="M10.4682 17.4193C10.4682 17.7756 10.1504 18.0645 9.75851 18.0645C9.36659 18.0645 9.04883 17.7756 9.04883 17.4193C9.04883 17.063 9.36659 16.7742 9.75851 16.7742C10.1504 16.7742 10.4682 17.063 10.4682 17.4193Z" fill="#BDFFCC"/>
<path d="M14.3705 15.1613C14.3705 15.5176 14.0528 15.8064 13.6608 15.8064C13.2689 15.8064 12.9512 15.5176 12.9512 15.1613C12.9512 14.805 13.2689 14.5161 13.6608 14.5161C14.0528 14.5161 14.3705 14.805 14.3705 15.1613Z" fill="#BDFFCC"/>
<path d="M5.85462 4.83871C5.85462 5.37314 5.37798 5.80646 4.7901 5.80646C4.20223 5.80646 3.72559 5.37314 3.72559 4.83871C3.72559 4.30428 4.20223 3.87097 4.7901 3.87097C5.37798 3.87097 5.85462 4.30428 5.85462 4.83871Z" fill="#9BC53D"/>
<path d="M19.3393 9.35486C19.3393 9.71115 19.0215 10 18.6296 10C18.2377 10 17.9199 9.71115 17.9199 9.35486C17.9199 8.99857 18.2377 8.7097 18.6296 8.7097C19.0215 8.7097 19.3393 8.99857 19.3393 9.35486Z" fill="#9BC53D"/>
<path d="M18.2736 3.22583H17.5639V2.58067H16.8542V3.22583H16.1445V3.87099H16.8542V4.51615H17.5639V3.87099H18.2736V3.22583Z" fill="#C7EBF2"/>
<path d="M4.79017 10.9678H4.08049V10.3226H3.37081V10.9678H2.66113V11.6129H3.37081V12.2581H4.08049V11.6129H4.79017V10.9678Z" fill="#C7EBF2"/>
</g>
<defs>
<clipPath id="clip0">
<rect width="22" height="20" fill="white"/>
</clipPath>
</defs>
</svg>
