<svg width="18" height="19" viewBox="0 0 18 19" fill="none" xmlns="http://www.w3.org/2000/svg">
<path d="M0 15.0161V16.5484H8.12903L9 17.1613L9.87097 16.5484H18V15.0161H0Z" fill="#C5D998"/>
<path d="M9 9.80649V3.06455C9 2.3903 8.47748 1.83875 7.83871 1.83875H0V15.0162H7.83871C8.48003 15.0162 9 15.565 9 16.242V9.80649Z" fill="#9BC53D"/>
<path d="M9 9.80649V3.06455C9 2.3903 9.52252 1.83875 10.1613 1.83875H18V15.0162H10.1613C9.51997 15.0162 9 15.565 9 16.242V9.80649Z" fill="#8CB337"/>
<path d="M0.871094 5.20969H2.61303V5.82259H0.871094V5.20969Z" fill="#C5D998"/>
<path d="M3.19385 5.20969H8.12933V5.82259H3.19385V5.20969Z" fill="#C5D998"/>
<path d="M3.77441 3.37094H8.12925V3.98385H3.77441V3.37094Z" fill="#C5D998"/>
<path d="M14.2261 7.04837H17.1293V7.66127H14.2261V7.04837Z" fill="#C5D998"/>
<path d="M14.2261 5.20969H17.1293V5.82259H14.2261V5.20969Z" fill="#C5D998"/>
<path d="M14.2261 3.37094H17.1293V3.98385H14.2261V3.37094Z" fill="#C5D998"/>
<path d="M0.871094 7.04837H4.35496V7.66127H0.871094V7.04837Z" fill="#C5D998"/>
<path d="M4.93604 7.04837H8.12958V7.66127H4.93604V7.04837Z" fill="#C5D998"/>
<path d="M16.5485 8.88712V11.0323C16.5485 11.2011 16.4181 11.3387 16.2582 11.3387H15.6776V11.0323C15.6776 10.8632 15.5474 10.7258 15.3872 10.7258H11.9034C11.7432 10.7258 11.613 10.8632 11.613 11.0323V11.1589C11.0701 10.9171 10.414 10.9171 9.87111 11.1589V11.0323C9.87111 10.8632 9.74097 10.7258 9.58079 10.7258H6.09692C5.93673 10.7258 5.80659 10.8632 5.80659 11.0323V11.3387H5.22595C5.06604 11.3387 4.93563 11.2011 4.93563 11.0323V8.88712H4.35498V11.0323C4.35498 11.5391 4.74581 11.9516 5.22595 11.9516H5.80659V12.871C5.80659 13.0401 5.93673 13.1774 6.09692 13.1774H9.58079C9.74097 13.1774 9.87111 13.0401 9.87111 12.871V11.8346L10.013 11.7595C10.4489 11.5294 11.035 11.5294 11.4711 11.7595L11.613 11.8346V12.871C11.613 13.0401 11.7432 13.1774 11.9034 13.1774H15.3872C15.5474 13.1774 15.6776 13.0401 15.6776 12.871V11.9516H16.2582C16.7383 11.9516 17.1292 11.5391 17.1292 11.0323V8.88712H16.5485Z" fill="#FCE0B0"/>
<path d="M2.90307 4.29036L2.0321 3.67745L1.16113 4.29036V1.83875H2.90307V4.29036Z" fill="#FCB641"/>
<path d="M13.0646 9.19347H10.742C10.5818 9.19347 10.4517 9.0561 10.4517 8.88701V3.98379C10.4517 3.8147 10.5818 3.67734 10.742 3.67734H13.0646C13.2248 3.67734 13.3549 3.8147 13.3549 3.98379V8.88701C13.3549 9.0561 13.2248 9.19347 13.0646 9.19347Z" fill="#FCB641"/>
<path d="M0.871094 8.88712H3.77432V9.50002H0.871094V8.88712Z" fill="#C5D998"/>
<path d="M0.871094 10.7258H3.77432V11.3387H0.871094V10.7258Z" fill="#C5D998"/>
<path d="M0.871094 12.5645H4.35496V13.1774H0.871094V12.5645Z" fill="#C5D998"/>
</svg>
