<svg width="20" height="20" viewBox="0 0 20 20" fill="none" xmlns="http://www.w3.org/2000/svg">
<path d="M10.3229 14.1774H9.67773V12.6451C9.67773 12.4756 9.82186 12.3387 10.0003 12.3387H15.1616V11.7258H15.8068V12.6451C15.8068 12.8147 15.6626 12.9516 15.4842 12.9516H10.3229V14.1774Z" fill="#706D69"/>
<path d="M10.3229 13.8709H9.67773V12.6451C9.67773 12.4756 9.82186 12.3387 10.0003 12.3387H15.1616V11.7258H15.8068V12.6451C15.8068 12.8147 15.6626 12.9516 15.4842 12.9516H10.3229V13.8709Z" fill="#747474"/>
<rect x="2.2" y="1.96666" width="15.6" height="10.7333" fill="#D3D3D3" stroke="#A3A2A2" stroke-width="0.6"/>
<path d="M18.75 2.26668H1.25V0.500021C1.25 0.383539 1.42053 0.28891 1.63043 0.28891H18.3696C18.5795 0.28891 18.75 0.383539 18.75 0.500021V2.26668Z" fill="#747474"/>
<path d="M3.75 1H4.39516V1.6129H3.75V1Z" fill="#A3A2A2"/>
<path d="M5.03955 1H5.68471V1.6129H5.03955V1Z" fill="#A3A2A2"/>
<path d="M6.33057 1H6.97573V1.6129H6.33057V1Z" fill="#A3A2A2"/>
<path d="M14.7173 1H16.6528V1.6129H14.7173V1Z" fill="#A3A2A2"/>
<path d="M19.0316 20H0.967112C0.789126 20 0.644531 19.8626 0.644531 19.6935V14.1774C0.644531 14.0083 0.789126 13.8709 0.967112 13.8709H19.0316C19.2096 13.8709 19.3542 14.0083 19.3542 14.1774V19.6935C19.3542 19.8626 19.2096 20 19.0316 20Z" fill="#FCB641"/>
<path d="M1.61328 15.0968H2.9036V15.7097H1.61328V15.0968Z" fill="#FCD086"/>
<path d="M3.54883 15.0968H4.83915V15.7097H3.54883V15.0968Z" fill="#FCD086"/>
<path d="M5.48438 15.0968H6.77469V15.7097H5.48438V15.0968Z" fill="#FCD086"/>
<path d="M7.41992 15.0968H8.71025V15.7097H7.41992V15.0968Z" fill="#FCD086"/>
<path d="M9.35547 15.0968H10.6458V15.7097H9.35547V15.0968Z" fill="#FCD086"/>
<path d="M11.291 15.0968H12.5813V15.7097H11.291V15.0968Z" fill="#FCD086"/>
<path d="M13.2266 15.0968H14.5169V15.7097H13.2266V15.0968Z" fill="#FCD086"/>
<path d="M15.1621 15.0968H16.4524V15.7097H15.1621V15.0968Z" fill="#FCD086"/>
<path d="M17.0977 15.0968H18.388V15.7097H17.0977V15.0968Z" fill="#FCD086"/>
<path d="M1.61328 16.6291H2.9036V17.242H1.61328V16.6291Z" fill="#FCD086"/>
<path d="M3.54883 16.6291H4.83915V17.242H3.54883V16.6291Z" fill="#FCD086"/>
<path d="M5.48438 16.6291H6.77469V17.242H5.48438V16.6291Z" fill="#FCD086"/>
<path d="M7.41992 16.6291H8.71025V17.242H7.41992V16.6291Z" fill="#FCD086"/>
<path d="M9.35547 16.6291H10.6458V17.242H9.35547V16.6291Z" fill="#FCD086"/>
<path d="M11.291 16.6291H12.5813V17.242H11.291V16.6291Z" fill="#FCD086"/>
<path d="M13.2266 16.6291H14.5169V17.242H13.2266V16.6291Z" fill="#FCD086"/>
<path d="M15.1621 16.6291H16.4524V17.242H15.1621V16.6291Z" fill="#FCD086"/>
<path d="M17.0977 16.6291H18.388V17.242H17.0977V16.6291Z" fill="#FCD086"/>
<path d="M1.61328 18.1613H2.9036V18.7743H1.61328V18.1613Z" fill="#FCD086"/>
<path d="M3.54883 18.1613H4.83915V18.7743H3.54883V18.1613Z" fill="#FCD086"/>
<path d="M5.48438 18.1613H6.77469V18.7743H5.48438V18.1613Z" fill="#FCD086"/>
<path d="M7.41992 18.1613H8.71025V18.7743H7.41992V18.1613Z" fill="#FCD086"/>
<path d="M9.35547 18.1613H10.6458V18.7743H9.35547V18.1613Z" fill="#FCD086"/>
<path d="M11.291 18.1613H12.5813V18.7743H11.291V18.1613Z" fill="#FCD086"/>
<path d="M13.2266 18.1613H14.5169V18.7743H13.2266V18.1613Z" fill="#FCD086"/>
<path d="M15.1621 18.1613H16.4524V18.7743H15.1621V18.1613Z" fill="#FCD086"/>
<path d="M17.0977 18.1613H18.388V18.7743H17.0977V18.1613Z" fill="#FCD086"/>
</svg>
