<svg width="21" height="19" viewBox="0 0 21 19" fill="none" xmlns="http://www.w3.org/2000/svg">
<path d="M2.37061 10.1129H18.6287V10.7258H2.37061V10.1129Z" fill="#86472B"/>
<path d="M2.37061 5.82257H18.6287V6.43547H2.37061V5.82257Z" fill="#86472B"/>
<path d="M2.37061 1.53226H18.6287V2.14516H2.37061V1.53226Z" fill="#86472B"/>
<path d="M2.37061 14.4032H18.6287V15.0161H2.37061V14.4032Z" fill="#86472B"/>
<path d="M5.41961 15.9355C5.04534 15.9355 4.74219 15.6612 4.74219 15.3226V14.0968C4.74219 13.7582 5.04534 13.4839 5.41961 13.4839C5.79387 13.4839 6.09703 13.7582 6.09703 14.0968V15.3226C6.09703 15.6612 5.79387 15.9355 5.41961 15.9355Z" fill="#FCB641"/>
<path d="M5.41961 11.6452C5.04534 11.6452 4.74219 11.3709 4.74219 11.0323V9.80651C4.74219 9.46788 5.04534 9.1936 5.41961 9.1936C5.79387 9.1936 6.09703 9.46788 6.09703 9.80651V11.0323C6.09703 11.3709 5.79387 11.6452 5.41961 11.6452Z" fill="#E65039"/>
<path d="M6.7741 11.6452C6.39983 11.6452 6.09668 11.3709 6.09668 11.0323V9.80651C6.09668 9.46788 6.39983 9.1936 6.7741 9.1936C7.14837 9.1936 7.45152 9.46788 7.45152 9.80651V11.0323C7.45152 11.3709 7.14837 11.6452 6.7741 11.6452Z" fill="#FCB641"/>
<path d="M11.5158 11.6452C11.1415 11.6452 10.8384 11.3709 10.8384 11.0323V9.80651C10.8384 9.46788 11.1415 9.1936 11.5158 9.1936C11.8901 9.1936 12.1932 9.46788 12.1932 9.80651V11.0323C12.1932 11.3709 11.8901 11.6452 11.5158 11.6452Z" fill="#E65039"/>
<path d="M5.41961 7.35481C5.04534 7.35481 4.74219 7.08053 4.74219 6.74191V5.5161C4.74219 5.17748 5.04534 4.9032 5.41961 4.9032C5.79387 4.9032 6.09703 5.17748 6.09703 5.5161V6.74191C6.09703 7.08053 5.79387 7.35481 5.41961 7.35481Z" fill="#FCB641"/>
<path d="M6.7741 7.35481C6.39983 7.35481 6.09668 7.08053 6.09668 6.74191V5.5161C6.09668 5.17748 6.39983 4.9032 6.7741 4.9032C7.14837 4.9032 7.45152 5.17748 7.45152 5.5161V6.74191C7.45152 7.08053 7.14837 7.35481 6.7741 7.35481Z" fill="#E65039"/>
<path d="M11.5158 7.35481C11.1415 7.35481 10.8384 7.08053 10.8384 6.74191V5.5161C10.8384 5.17748 11.1415 4.9032 11.5158 4.9032C11.8901 4.9032 12.1932 5.17748 12.1932 5.5161V6.74191C12.1932 7.08053 11.8901 7.35481 11.5158 7.35481Z" fill="#FCB641"/>
<path d="M8.12908 7.35481C7.75481 7.35481 7.45166 7.08053 7.45166 6.74191V5.5161C7.45166 5.17748 7.75481 4.9032 8.12908 4.9032C8.50335 4.9032 8.8065 5.17748 8.8065 5.5161V6.74191C8.8065 7.08053 8.50335 7.35481 8.12908 7.35481Z" fill="#FCB641"/>
<path d="M9.48357 7.35481C9.1093 7.35481 8.80615 7.08053 8.80615 6.74191V5.5161C8.80615 5.17748 9.1093 4.9032 9.48357 4.9032C9.85784 4.9032 10.161 5.17748 10.161 5.5161V6.74191C10.161 7.08053 9.85784 7.35481 9.48357 7.35481Z" fill="#E65039"/>
<path d="M15.5807 3.0645C15.2065 3.0645 14.9033 2.79022 14.9033 2.45159V1.22579C14.9033 0.887165 15.2065 0.612885 15.5807 0.612885C15.955 0.612885 16.2582 0.887165 16.2582 1.22579V2.45159C16.2582 2.79022 15.955 3.0645 15.5807 3.0645Z" fill="#FCB641"/>
<path d="M12.8713 3.0645C12.497 3.0645 12.1938 2.79022 12.1938 2.45159V1.22579C12.1938 0.887165 12.497 0.612885 12.8713 0.612885C13.2455 0.612885 13.5487 0.887165 13.5487 1.22579V2.45159C13.5487 2.79022 13.2455 3.0645 12.8713 3.0645Z" fill="#FCB641"/>
<path d="M14.2258 3.0645C13.8515 3.0645 13.5483 2.79022 13.5483 2.45159V1.22579C13.5483 0.887165 13.8515 0.612885 14.2258 0.612885C14.6 0.612885 14.9032 0.887165 14.9032 1.22579V2.45159C14.9032 2.79022 14.6 3.0645 14.2258 3.0645Z" fill="#E65039"/>
<path d="M7.11297 3.0645C6.7387 3.0645 6.43555 2.79022 6.43555 2.45159V1.22579C6.43555 0.887165 6.7387 0.612885 7.11297 0.612885C7.48723 0.612885 7.79039 0.887165 7.79039 1.22579V2.45159C7.79039 2.79022 7.48723 3.0645 7.11297 3.0645Z" fill="#E65039"/>
<path d="M8.46746 3.0645C8.09319 3.0645 7.79004 2.79022 7.79004 2.45159V1.22579C7.79004 0.887165 8.09319 0.612885 8.46746 0.612885C8.84173 0.612885 9.14488 0.887165 9.14488 1.22579V2.45159C9.14488 2.79022 8.84173 3.0645 8.46746 3.0645Z" fill="#FCB641"/>
<path d="M19.6449 17.4677H18.29V0.612903C18.29 0.27428 18.5932 0 18.9675 0H19.6449V17.4677Z" fill="#B35F39"/>
<path d="M2.70933 17.4677H1.35449V0H2.03191C2.40618 0 2.70933 0.27428 2.70933 0.612903V17.4677Z" fill="#B35F39"/>
<path d="M20.6613 17.1613C20.8482 17.1613 21 17.2986 21 17.4677V19H0V17.4677C0 17.2986 0.151824 17.1613 0.33871 17.1613H20.6613Z" fill="#FCB641"/>
<path d="M1.69385 17.7742H2.37127V18.3871H1.69385V17.7742Z" fill="#B35F39"/>
<path d="M18.6294 17.7742H19.3068V18.3871H18.6294V17.7742Z" fill="#B35F39"/>
</svg>
