<svg width="24" height="23" viewBox="0 0 24 23" fill="none" xmlns="http://www.w3.org/2000/svg">
<path d="M12.5 20.3077V17H11.5V20.3077C11.2026 20.465 11 20.7551 11 21.0909C11 21.5932 11.4475 22 12 22C12.5525 22 13 21.5932 13 21.0909C13 20.7555 12.7976 20.4655 12.5 20.3077Z" fill="#8CB337"/>
<path d="M0 1.76923H24V17.6923H0V1.76923Z" fill="#C5D998"/>
<path d="M0.40678 1.76923C0.182336 1.76923 0 1.57097 0 1.32692V0.442308C0 0.198261 0.182336 0 0.40678 0H23.5932C23.8179 0 24 0.198261 24 0.442308V1.32692C24 1.57097 23.8179 1.76923 23.5932 1.76923H0.40678Z" fill="#8CB337"/>
<path d="M6.32922 11.3533H3.84307C3.61444 11.3533 3.42871 11.1616 3.42871 10.9257V9.21512C3.42871 8.97916 3.61444 8.78748 3.84307 8.78748H5.50051V7.9322H3.42871V7.07692H5.91487C6.1441 7.07692 6.32922 7.26861 6.32922 7.50456V9.21512C6.32922 9.45107 6.1441 9.64275 5.91487 9.64275H4.25743V10.498H6.32922V11.3533Z" fill="#8CB337"/>
<path d="M12.9588 11.3533H10.4727V10.498H12.5445V9.64275H10.887C10.658 9.64275 10.4727 9.45107 10.4727 9.21512V7.50456C10.4727 7.26861 10.658 7.07692 10.887 7.07692H13.3732V7.9322H11.3014V8.78748H12.9588C13.1881 8.78748 13.3732 8.97916 13.3732 9.21512V10.9257C13.3732 11.1616 13.1881 11.3533 12.9588 11.3533Z" fill="#8CB337"/>
<path d="M9.64487 8.78739H8.81615V7.93211H7.98742V8.78739H7.15869V9.64267H7.98742V10.4979H8.81615V9.64267H9.64487V8.78739Z" fill="#8CB337"/>
<path d="M15.4287 8.84615H17.0861V9.70143H15.4287V8.84615Z" fill="#8CB337"/>
<path d="M15.4287 10.5567H17.0861V11.412H15.4287V10.5567Z" fill="#8CB337"/>
<path d="M20.5149 10.498H19.6861V9.21511C19.6861 8.97916 19.8715 8.78747 20.1005 8.78747H20.9292V7.9322H19.6861V8.35984H18.8574V7.50456C18.8574 7.26861 19.0428 7.07692 19.2718 7.07692H21.3436C21.5728 7.07692 21.7579 7.26861 21.7579 7.50456V9.21511C21.7579 9.45107 21.5728 9.64275 21.3436 9.64275H20.5149V10.498Z" fill="#8CB337"/>
<path d="M19.686 11.3534H20.5148V12.2086H19.686V11.3534Z" fill="#8CB337"/>
</svg>
