<svg width="19" height="24" viewBox="0 0 19 24" fill="none" xmlns="http://www.w3.org/2000/svg">
<path d="M17.6872 11.399C17.6872 15.7063 14.4008 19.1982 10.3468 19.1982C6.29279 19.1982 3.00635 15.7063 3.00635 11.399C3.00635 7.09157 6.29279 3.59973 10.3468 3.59973C14.4008 3.59973 17.6872 7.09157 17.6872 11.399Z" fill="#FCB641"/>
<path d="M7.80713 20.3981L7.98772 22.3175C8.04534 22.9306 8.53114 23.3978 9.1115 23.3978H11.5846C12.165 23.3978 12.6508 22.9306 12.7084 22.3175L12.889 20.3981H7.80713Z" fill="#FCB641"/>
<path d="M9.78369 11.999H10.913V17.9984H9.78369V11.999Z" fill="#C5D998"/>
<path d="M13.1704 17.3984H7.52393L7.80625 20.3981H12.8881L13.1704 17.3984Z" fill="#FCE0B0"/>
<path d="M1.87744 19.798H3.00674V20.9979H1.87744V19.798Z" fill="#C5D998"/>
<path d="M1.87744 22.1978H3.00674V23.3976H1.87744V22.1978Z" fill="#C5D998"/>
<path d="M0.748047 20.9979H1.87735V22.1977H0.748047V20.9979Z" fill="#C5D998"/>
<path d="M3.00635 20.9979H4.13565V22.1977H3.00635V20.9979Z" fill="#C5D998"/>
<path d="M15.9937 0H17.123V1.19988H15.9937V0Z" fill="#C5D998"/>
<path d="M15.9937 2.39966H17.123V3.59953H15.9937V2.39966Z" fill="#C5D998"/>
<path d="M14.8643 1.20001H15.9936V2.39989H14.8643V1.20001Z" fill="#C5D998"/>
<path d="M17.1226 1.20001H18.2519V2.39989H17.1226V1.20001Z" fill="#C5D998"/>
<path d="M8.08916 8.99933H5.83057V10.1992C5.83057 11.5245 6.84186 12.599 8.08916 12.599H10.3478V11.3991C10.3478 10.0738 9.33647 8.99933 8.08916 8.99933Z" fill="#9BC53D"/>
<path d="M12.6058 8.99933H14.8644V10.1992C14.8644 11.5245 13.8531 12.599 12.6058 12.599H10.3472V11.3991C10.3472 10.0738 11.3585 8.99933 12.6058 8.99933Z" fill="#8CB337"/>
</svg>
