<svg width="19" height="19" viewBox="0 0 19 19" fill="none" xmlns="http://www.w3.org/2000/svg">
<path d="M18.7957 9.22848C18.7957 4.36237 14.5884 0.417999 9.39785 0.417999C4.20733 0.417999 0 4.36237 0 9.22848C0 9.25691 0.00359123 9.28403 0.00399026 9.31246C0.00359123 9.34071 0 9.36802 0 9.39626C0 14.2624 4.20733 18.2067 9.39785 18.2067C14.5884 18.2067 18.7957 14.2624 18.7957 9.39626C18.7957 9.36802 18.7917 9.34071 18.7917 9.31246C18.7917 9.28403 18.7957 9.25691 18.7957 9.22848Z" fill="#33C0DB"/>
<path d="M9.80555 12.4608V14.3761C9.80555 14.5877 9.6224 14.7592 9.39695 14.7592H8.79841C8.66195 14.7592 8.53406 14.6952 8.45844 14.5888L7.88385 13.781C7.80783 13.674 7.68035 13.61 7.54388 13.61H6.83142C6.65565 13.61 6.49923 13.7153 6.44357 13.872L5.22754 17.2925C6.48407 17.8766 7.89901 18.2068 9.39695 18.2068C11.9385 18.2068 14.2429 17.259 15.9346 15.7226V12.8439C15.9346 12.6325 15.7514 12.4608 15.526 12.4608H14.1102C13.9738 12.4608 13.8459 12.3968 13.7703 12.2904L12.3785 10.3334C12.3025 10.2264 12.175 10.1624 12.0385 10.1624H10.2142C9.98871 10.1624 9.80555 10.3341 9.80555 10.5455V11.6947" fill="#FCB641"/>
<path d="M7.90576 0.529871L8.95699 0.42868C8.60066 0.444018 8.25012 0.478247 7.90576 0.529871Z" fill="#33C0DB"/>
<path d="M7.32292 0.585833C6.143 0.843953 5.04747 1.31942 4.08203 1.96378C5.20469 1.24011 6.50332 0.73977 7.9061 0.529907L7.32292 0.585833Z" fill="#33C0DB"/>
<path d="M3.97374 4.10537C4.04277 4.23948 4.18462 4.32458 4.33905 4.32458H5.31227C5.53772 4.32458 5.72087 4.5019 5.72087 4.72055V6.70134C5.72087 6.92056 5.90402 7.09787 6.12947 7.09787H8.72035C8.88395 7.09787 9.03179 7.00323 9.09583 6.85771L10.1094 4.56475C10.1738 4.41904 10.3212 4.32458 10.4848 4.32458H12.2585C12.484 4.32458 12.6671 4.14708 12.6671 3.92843V0.966597C11.6488 0.61215 10.5481 0.417999 9.39829 0.417999C9.25085 0.417999 9.10401 0.422301 8.95777 0.428287L7.90653 0.529477C6.50416 0.73934 5.20553 1.23968 4.08247 1.96335C3.77762 2.16667 3.48533 2.38588 3.20801 2.62137L3.97374 4.10537Z" fill="#FCB641"/>
<path d="M6.32979 9.96711L5.88428 9.54945C5.78293 9.45443 5.63549 9.41627 5.49623 9.44882L4.36559 9.71386C4.198 9.75332 4.02223 9.68935 3.92626 9.55487L3.39017 8.80108C3.31455 8.6941 3.18706 8.63013 3.0506 8.63013H2.45206C2.22661 8.63013 2.04346 8.80183 2.04346 9.01319V10.0038C2.04346 10.1053 2.08635 10.203 2.16316 10.2746L3.55816 11.5824C3.63497 11.6544 3.73872 11.6946 3.84705 11.6946H5.46829C5.62332 11.6946 5.76457 11.6127 5.8336 11.4829L6.406 10.4091C6.48501 10.2621 6.45429 10.0838 6.32979 9.96711Z" fill="#FCB641"/>
<path d="M15.8605 7.72223L15.232 6.54368C15.1626 6.41368 15.0213 6.33176 14.8663 6.33176H14.017C13.9364 6.33176 13.8576 6.35401 13.7901 6.3961L12.9671 6.91028C12.7956 7.01746 12.7363 7.22732 12.8283 7.40015L13.431 8.53026C13.4657 8.59535 13.5196 8.64978 13.5862 8.68719L15.4303 9.72453C15.494 9.76063 15.5668 9.77933 15.6406 9.77933H16.7533C16.9787 9.77933 17.1619 9.60782 17.1619 9.39627V8.52334C17.1619 8.35856 17.0496 8.21191 16.8824 8.15973L16.0967 7.91414C15.9937 7.88197 15.9087 7.81314 15.8605 7.72223Z" fill="#FCB641"/>
</svg>
