<svg width="22" height="21" viewBox="0 0 22 21" fill="none" xmlns="http://www.w3.org/2000/svg">
<path d="M1.06445 6.74603H20.9354V20.9718H1.06445V6.74603Z" fill="#B35F39"/>
<path d="M14.1934 7.42346H21.4675C21.7208 7.42346 21.8927 7.17753 21.795 6.95426L20.3164 3.56717C20.2615 3.44114 20.1322 3.35895 19.9889 3.35895H14.1934V7.42346Z" fill="#FCB641"/>
<path d="M7.80622 7.42346H0.532028C0.278721 7.42346 0.106846 7.17753 0.204565 6.95426L1.68318 3.56717C1.7381 3.44114 1.86735 3.35895 2.01064 3.35895H7.80622V7.42346Z" fill="#FCB641"/>
<path d="M14.5479 7.42354H7.45117V2.44444C7.45117 2.33198 7.50973 2.22696 7.60693 2.16394L10.8005 0.100594C10.9207 0.023028 11.0784 0.023028 11.1983 0.100594L14.3918 2.16394C14.4894 2.22696 14.5479 2.33198 14.5479 2.44444V7.42354Z" fill="#E65039"/>
<path d="M2.48381 11.4881H1.06445V9.4558C1.06445 9.08137 1.38204 8.77838 1.77413 8.77838C2.16622 8.77838 2.48381 9.08137 2.48381 9.4558V11.4881Z" fill="#FCB641"/>
<path d="M8.51604 11.4881H7.09668V9.4558C7.09668 9.08137 7.41427 8.77838 7.80636 8.77838C8.19845 8.77838 8.51604 9.08137 8.51604 9.4558V11.4881Z" fill="#FCB641"/>
<path d="M14.9028 11.4881H13.4834V9.4558C13.4834 9.08137 13.801 8.77838 14.1931 8.77838C14.5852 8.77838 14.9028 9.08137 14.9028 9.4558V11.4881Z" fill="#FCB641"/>
<path d="M11.7094 11.4881H10.29V9.4558C10.29 9.08137 10.6076 8.77838 10.9997 8.77838C11.3918 8.77838 11.7094 9.08137 11.7094 9.4558V11.4881Z" fill="#FCB641"/>
<path d="M20.935 11.4881H19.5156V9.4558C19.5156 9.08137 19.8332 8.77838 20.2253 8.77838C20.6174 8.77838 20.935 9.08137 20.935 9.4558V11.4881Z" fill="#FCB641"/>
<path d="M18.0971 11.4881H16.6777V9.4558C16.6777 9.08137 16.9953 8.77838 17.3874 8.77838C17.7795 8.77838 18.0971 9.08137 18.0971 9.4558V11.4881Z" fill="#FCB641"/>
<path d="M5.32267 11.4881H3.90332V9.4558C3.90332 9.08137 4.22091 8.77838 4.613 8.77838C5.00509 8.77838 5.32267 9.08137 5.32267 9.4558V11.4881Z" fill="#FCB641"/>
<path d="M12.4194 16.5687C12.4194 15.8203 11.7838 15.2138 11 15.2138V19.9558H12.4194V16.5687Z" fill="#FCC05B"/>
<path d="M9.58105 16.5687V19.9558H11.0004V15.2138C10.2166 15.2138 9.58105 15.8203 9.58105 16.5687Z" fill="#FCCB79"/>
<path d="M4.61243 18.6009H2.4834V16.23C2.4834 15.6686 2.95987 15.2138 3.54791 15.2138C4.13596 15.2138 4.61243 15.6686 4.61243 16.23V18.6009Z" fill="#FCB641"/>
<path d="M2.4834 17.2461H4.61243V18.6009H2.4834V17.2461Z" fill="#FCCB79"/>
<path d="M8.16126 18.6009H6.03223V16.23C6.03223 15.6686 6.50869 15.2138 7.09674 15.2138C7.68479 15.2138 8.16126 15.6686 8.16126 16.23V18.6009Z" fill="#FCB641"/>
<path d="M6.03223 17.2461H8.16126V18.6009H6.03223V17.2461Z" fill="#FCCB79"/>
<path d="M15.9679 18.6009H13.8389V16.23C13.8389 15.6686 14.3153 15.2138 14.9034 15.2138C15.4914 15.2138 15.9679 15.6686 15.9679 16.23V18.6009Z" fill="#FCB641"/>
<path d="M13.8389 17.2461H15.9679V18.6009H13.8389V17.2461Z" fill="#FCCB79"/>
<path d="M19.5157 18.6009H17.3867V16.23C17.3867 15.6686 17.8632 15.2138 18.4512 15.2138C19.0393 15.2138 19.5157 15.6686 19.5157 16.23V18.6009Z" fill="#FCB641"/>
<path d="M17.3867 17.2461H19.5157V18.6009H17.3867V17.2461Z" fill="#FCCB79"/>
<path d="M13.1292 4.03638C13.1292 5.15868 12.1759 6.06864 11.0001 6.06864C9.82438 6.06864 8.87109 5.15868 8.87109 4.03638C8.87109 2.91391 9.82438 2.00412 11.0001 2.00412C12.1759 2.00412 13.1292 2.91391 13.1292 4.03638Z" fill="#FCB641"/>
<path d="M11.0004 4.71386C10.9323 4.71386 10.8639 4.69517 10.8038 4.6568L10.0054 4.14874L10.399 3.58527L10.9554 3.93952L11.814 3.11987L12.3158 3.59866L11.2513 4.61479C11.1828 4.67995 11.0919 4.71386 11.0004 4.71386Z" fill="#E65039"/>
<path d="M18.0968 12.8429H21.6452C21.8409 12.8429 22 12.9945 22 13.1816V13.5203C22 13.7072 21.8409 13.859 21.6452 13.859H0.354839C0.159054 13.859 0 13.7072 0 13.5203V13.1816C0 12.9945 0.159054 12.8429 0.354839 12.8429H17.3871" fill="#FCB641"/>
<path d="M21.6452 20.9719H0.354839C0.159054 20.9719 0 20.8201 0 20.6332V20.2945C0 20.1074 0.159054 19.9557 0.354839 19.9557H21.6452C21.8409 19.9557 22 20.1074 22 20.2945V20.6332C22 20.8201 21.8409 20.9719 21.6452 20.9719Z" fill="#FCB641"/>
</svg>
