<svg width="20" height="19" viewBox="0 0 20 19" fill="none" xmlns="http://www.w3.org/2000/svg">
<g clip-path="url(#clip0)">
<path d="M10.6225 16.8759L6.75541 16.8607L6.75147 17.7791C6.7499 18.1174 7.03738 18.3926 7.39347 18.3938L9.97155 18.404C10.3276 18.4055 10.6173 18.1324 10.6186 17.7941L10.6225 16.8759Z" fill="#B35F39"/>
<path d="M10.9896 6.46853L6.47803 6.45075L6.501 1.24627C6.50257 0.907989 6.79226 0.635328 7.14804 0.636524L10.3706 0.64938C10.7267 0.650875 11.0139 0.926077 11.0126 1.26406L10.9896 6.46853Z" fill="#DFDAD1"/>
<path d="M6.43213 17.166L6.48091 6.14474L10.9925 6.16268L10.9437 17.1839L6.43213 17.166Z" fill="#F39237"/>
<path d="M10.9897 6.46853L6.47852 6.45044L6.48229 5.53231L7.45457 4.31146L10.0326 4.32163L10.9939 5.5501L10.9897 6.46853Z" fill="#B35F39"/>
<path d="M9.71041 4.32025L7.77686 4.31263L7.78756 1.86346L9.71718 2.71299L9.71041 4.32025Z" fill="#F39237"/>
<path d="M9.6716 13.1985L9.66908 13.8108C9.66672 14.3182 9.23211 14.7275 8.69837 14.7254C8.16448 14.7231 7.73349 14.3103 7.73585 13.8032L7.75457 9.51716C7.75678 9.00996 8.19154 8.60052 8.72512 8.60276C9.25918 8.60485 9.69001 9.01788 9.6878 9.52479L9.67411 12.5862L9.6716 13.1985Z" fill="#E65039"/>
<path d="M19.3554 17.4693H16.7773V15.6324H19.3554V17.4693Z" fill="#706D69"/>
<path d="M19.3554 3.6917L18.3886 0.0179596H17.7441L16.7773 3.6917H19.3554Z" fill="#706D69"/>
<path d="M19.3554 4.30502V3.38658L18.9526 2.162H17.1802L16.7773 3.38658V4.30502" fill="#F5B9B0"/>
<path d="M18.7109 3.6927C18.3546 3.6927 18.0664 3.96671 18.0664 4.30499C18.0664 3.96671 17.778 3.6927 17.4219 3.6927H16.7773V15.9385H19.3554V3.6927H18.7109Z" fill="#9BC53D"/>
<path d="M18.7109 3.6927H19.3554V15.9385H18.0664V4.30499C18.0664 3.96671 18.3547 3.6927 18.7109 3.6927Z" fill="#88AD36"/>
<path d="M16.7773 17.1631H19.3554V18.6939C19.3554 18.8628 19.211 19 19.0332 19H17.0996C16.9216 19 16.7773 18.8628 16.7773 18.6939V17.1631Z" fill="#DFDAD1"/>
<path d="M4.48971 18.9948L0.944869 18.9807C0.76706 18.9801 0.62324 18.8423 0.624027 18.6734L0.704591 0.304952C0.705221 0.135884 0.850142 -0.000595983 1.02811 1.95727e-06L4.57295 0.0140536C4.75076 0.0146515 4.89458 0.152477 4.89395 0.321395L4.8137 18.6898C4.8126 18.8592 4.66767 18.9954 4.48971 18.9948Z" fill="#33C0DB"/>
<path d="M0.693848 2.75394L0.696523 2.14165L1.98556 2.14673L1.98288 2.75902L0.693848 2.75394Z" fill="#C7EBF2"/>
<path d="M0.685547 4.59065L0.688222 3.97836L2.62177 3.98599L2.6191 4.59828L0.685547 4.59065Z" fill="#C7EBF2"/>
<path d="M0.677734 6.42801L0.680409 5.81572L1.96944 5.8208L1.96677 6.43309L0.677734 6.42801Z" fill="#C7EBF2"/>
<path d="M0.669922 8.26467L0.672597 7.65237L2.60615 7.66L2.60347 8.27229L0.669922 8.26467Z" fill="#C7EBF2"/>
<path d="M0.662109 10.1019L0.664784 9.48959L1.95382 9.49483L1.95114 10.1071L0.662109 10.1019Z" fill="#C7EBF2"/>
<path d="M0.653809 11.9387L0.656326 11.3264L2.58987 11.3339L2.58736 11.9462L0.653809 11.9387Z" fill="#C7EBF2"/>
<path d="M0.645996 13.7759L0.648671 13.1636L1.9377 13.1687L1.93503 13.781L0.645996 13.7759Z" fill="#C7EBF2"/>
<path d="M0.637695 15.6124L0.640213 15.0002L2.57376 15.0076L2.57125 15.6199L0.637695 15.6124Z" fill="#C7EBF2"/>
<path d="M0.629883 17.4497L0.632558 16.8374L1.92159 16.8426L1.91892 17.4549L0.629883 17.4497Z" fill="#C7EBF2"/>
<path d="M2.9541 1.84446L2.95788 0.926025L3.60239 0.928417L3.59862 1.84685L2.9541 1.84446Z" fill="#C7EBF2"/>
<path d="M12.9106 5.52962H14.8442L15.1664 5.83576V16.2447H12.5884V5.83576L12.9106 5.52962Z" fill="#FCB641"/>
<path d="M12.9102 17.1631H14.8437V18.0816C14.8437 18.2505 14.6993 18.3877 14.5214 18.3877H13.2324C13.0544 18.3877 12.9102 18.2505 12.9102 18.0816V17.1631Z" fill="#E65039"/>
<path d="M15.1664 17.1631H12.5884V15.9385H15.1664V17.1631Z" fill="#706D69"/>
<path d="M13.5547 7.36646H14.1992V10.1218H13.5547V7.36646Z" fill="#FCD086"/>
<path d="M13.7158 0.325104H14.0381V1.85583H13.7158V0.325104Z" fill="#706D69"/>
<path d="M12.9102 4.61118H14.8437V3.99889L14.1186 1.54973H13.6352L12.9102 4.1137V4.61118Z" fill="#E65039"/>
<path d="M14.8442 4.61112V4.30498H12.9106V4.61112L12.5884 5.8357H15.1664L14.8442 4.61112Z" fill="#706D69"/>
</g>
<defs>
<clipPath id="clip0">
<rect width="20" height="19" fill="white"/>
</clipPath>
</defs>
</svg>
