<svg width="20" height="23" viewBox="0 0 20 23" fill="none" xmlns="http://www.w3.org/2000/svg">
<path d="M19.3551 0.741935V0H4.83901C4.48256 0 4.19385 0.332023 4.19385 0.741935V22.2581C4.19385 22.668 4.48256 23 4.83901 23H18.71C19.0664 23 19.3551 22.668 19.3551 22.2581V2.22581C19.3551 1.81589 19.0664 1.48387 18.71 1.48387C19.0664 1.48387 19.3551 1.15185 19.3551 0.741935Z" fill="#FCB641"/>
<path d="M5.80675 23H4.83901C4.48256 23 4.19385 22.668 4.19385 22.2581V0.741935C4.19385 0.332023 4.48256 0 4.83901 0H5.80675V23Z" fill="#B35F39"/>
<path d="M8.38672 5.56445H16.7738V10.387H8.38672V5.56445Z" fill="#FCE0B0"/>
<path d="M18.7094 1.48387H5.80615V0H19.3545V0.741935C19.3545 1.15185 19.0658 1.48387 18.7094 1.48387Z" fill="#FCC871"/>
<path d="M19.3545 2.96771H5.80615V1.48384H18.7094C19.0658 1.48384 19.3545 1.81586 19.3545 2.22578V2.96771Z" fill="#FCE0B0"/>
<path d="M15.4839 19.2903H18.0645V20.0322H15.4839V19.2903Z" fill="#FCE0B0"/>
<path d="M13.8711 20.7741H18.0647V21.5161H13.8711V20.7741Z" fill="#FCE0B0"/>
<path d="M15.1616 13.7258C15.8742 13.7258 16.452 13.0614 16.452 12.2419V11.8709H8.71002L10.2549 10.9828C10.692 10.7314 10.9681 10.2175 10.9681 9.65546V8.75485L6.76257 10.0904L4.46875 11.8709H0.645508V17.8064H4.38748L5.35648 19.0447C5.47871 19.2008 5.65323 19.2903 5.8361 19.2903H13.2262C13.9387 19.2903 14.5165 18.6259 14.5165 17.8064V17.4355H15.1616C15.8742 17.4355 16.452 16.7711 16.452 15.9516V15.5806H16.1294C16.842 15.5806 17.4197 14.9162 17.4197 14.0968V13.7258H15.1616Z" fill="#F5B9B0"/>
<path d="M3.87109 15.9516H4.51625V17.8065H3.87109V15.9516Z" fill="#E6ADA5"/>
<path d="M3.87109 13.7258H4.51625V15.2096H3.87109V13.7258Z" fill="#E6ADA5"/>
<path d="M9.67725 13.7258H17.4192V14.0967H9.67725V13.7258Z" fill="#E6ADA5"/>
<path d="M9.67725 15.5806H16.4514V15.9516H9.67725V15.5806Z" fill="#E6ADA5"/>
<path d="M9.67725 17.4355H14.516V17.8064H9.67725V17.4355Z" fill="#E6ADA5"/>
</svg>
