<svg width="24" height="17" viewBox="0 0 24 17" fill="none" xmlns="http://www.w3.org/2000/svg">
<path d="M19.078 0H4.92185C2.20787 0 0 1.99655 0 4.45076V11.6121C0 14.0663 2.20787 16.0628 4.92185 16.0628H5.65225C6.0234 16.0628 9.96509 16.0628 10.1804 16.0628H19.078C21.792 16.0628 23.9999 14.0663 23.9999 11.6121V4.45076C23.9999 1.99655 21.792 0 19.078 0Z" fill="#6787F5"/>
<path d="M19.0786 0H12.0005V16.0628H19.0786C21.7925 16.0628 24.0004 14.0663 24.0004 11.6121V4.45076C24.0004 1.99655 21.7925 0 19.0786 0Z" fill="#38478A"/>
<path d="M9.36328 17L10.1801 16.0628L9.36328 17Z" fill="white"/>
<path d="M23.9999 5.22452H18.088L22.4887 1.24499C21.6034 0.47455 20.4009 0 19.078 0H17.8994L15.105 2.5269V0H8.89503V2.5269L6.10067 0H4.92185C3.59892 0 2.39647 0.47455 1.51116 1.24499L5.91189 5.22452H0V10.8401H5.91189L1.67632 14.6701L1.51208 14.8187C2.39739 15.5888 3.59947 16.0628 4.92185 16.0628H5.65225H6.07028L8.81959 13.6056L8.77143 16.0628H15.1048V13.5447L17.8803 16.0628H19.078C20.3947 16.0628 21.5922 15.5929 22.4763 14.8288L22.3107 14.6784L18.0803 10.8401H23.9999V5.22452Z" fill="white"/>
<path d="M24.0004 5.22452H18.0885L22.4893 1.24499C21.6039 0.47455 20.4015 0 19.0786 0H17.8999L15.1056 2.5269V0H12.0005V16.0628H15.1054V13.5447L17.8809 16.0628H19.0786C20.3953 16.0628 21.5928 15.5929 22.4768 14.8288L22.3113 14.6784L18.0808 10.8401H24.0004V5.22452Z" fill="#C7D3ED"/>
<path d="M13.6986 6.49616V0H10.3013V6.49616H0V9.56848H10.3013L10.1804 16.0628H13.6986V9.56848H23.9999V6.49616H13.6986Z" fill="#FF337A"/>
<path d="M13.6991 6.49616V0H12.0005V16.0628H13.6991V9.56848H24.0004V6.49616H13.6991Z" fill="#D1005B"/>
<path d="M9.36355 5.64824V4.74915L4.16924 0.052002C3.63659 0.126181 3.13177 0.278017 2.66943 0.494098L8.36929 5.64824H9.36355Z" fill="#FF337A"/>
<path d="M21.3308 0.494098C20.8685 0.278017 20.3637 0.126181 19.831 0.052002L14.6367 4.74915V5.64824H15.631L21.3308 0.494098Z" fill="#D1005B"/>
<path d="M2.67041 15.5694C3.13293 15.7853 3.63775 15.937 4.17058 16.0112L9.36324 11.3154V10.4163H8.36899L2.67041 15.5694Z" fill="#FF337A"/>
<path d="M14.6367 10.4163V11.318L19.8116 16.0135C20.3454 15.941 20.8515 15.791 21.3151 15.5762L15.6282 10.4163H14.6367Z" fill="#D1005B"/>
</svg>
