<svg width="22" height="21" viewBox="0 0 22 21" fill="none" xmlns="http://www.w3.org/2000/svg">
<path d="M19.8704 5.92738V5.24996C19.8704 5.06308 19.7114 4.91125 19.5156 4.91125H18.8059C18.6101 4.91125 18.4511 5.06308 18.4511 5.24996V6.26609H17.3866C17.1908 6.26609 17.0317 6.41792 17.0317 6.6048V10.6693H21.2898V6.26609C21.2898 6.07921 21.1307 5.92738 20.9349 5.92738H19.8704Z" fill="#E65039"/>
<path d="M18.4511 10.6694H17.0317V6.60488C17.0317 6.418 17.1908 6.26617 17.3866 6.26617H18.4511V10.6694Z" fill="#FCB641"/>
<path d="M21.2904 10.6694H19.8711V5.92743H20.9356C21.1314 5.92743 21.2904 6.07925 21.2904 6.26614V10.6694Z" fill="#9BC53D"/>
<path d="M12.4191 8.63708C11.6353 8.63708 10.9998 9.24372 10.9998 9.99193C10.9998 9.24372 10.3642 8.63708 9.58041 8.63708H6.7417V10.6693H15.2578V8.63708H12.4191Z" fill="#8CB337"/>
<path d="M10.9998 10.6693H6.7417V8.63708H9.58041C10.3642 8.63708 10.9998 9.24372 10.9998 9.99193V10.6693Z" fill="#9BC53D"/>
<path d="M12.4189 9.31451H15.2577V9.99193H12.4189V9.31451Z" fill="#9DC24E"/>
<path d="M6.7417 9.31451H9.58041V9.99193H6.7417V9.31451Z" fill="#B4DB5C"/>
<path d="M5.32287 2.87902V2.2016H2.83899C2.72048 2.2016 2.60977 2.25816 2.54376 2.35227L1.22974 4.23386H0.709961V4.91128H1.17118L2.48416 8.35791V9.99192H3.19383V8.29837C3.19383 8.25868 3.18638 8.21981 3.17218 8.1826L1.92591 4.91128H2.48416V4.23386H2.08254L3.02889 2.87902H5.32287Z" fill="#E6A63B"/>
<path d="M1.06445 8.97577H1.77413V9.9919H1.06445V8.97577Z" fill="#E6A63B"/>
<path d="M6.03271 0.508057H6.74239V2.2016H6.03271V0.508057Z" fill="#E6A63B"/>
<path d="M0.709961 10.6694H4.96803V9.99197C4.96803 9.80508 4.80898 9.65326 4.61319 9.65326H1.0648C0.869015 9.65326 0.709961 9.80508 0.709961 9.99197V10.6694Z" fill="#FCB641"/>
<path d="M4.2583 3.55649H8.51636C8.51636 2.43402 7.56325 1.52423 6.38733 1.52423C5.21141 1.52423 4.2583 2.43402 4.2583 3.55649Z" fill="#FCB641"/>
<path d="M6.03174 4.57257H6.74141V5.92741H6.03174V4.57257Z" fill="#FCE0B0"/>
<path d="M7.854 4.83291L8.46856 4.4942L9.17824 5.66745L8.56368 6.00616L7.854 4.83291Z" fill="#FCE0B0"/>
<path d="M3.59619 5.66706L4.3057 4.49365L4.92043 4.83236L4.21092 6.00577L3.59619 5.66706Z" fill="#FCE0B0"/>
<path d="M21.6452 10.6693H0.354839C0.159054 10.6693 0 10.8211 0 11.008V11.6854C0 11.8723 0.159054 12.0242 0.354839 12.0242H3.67903L0.744156 20.0414C0.66359 20.2615 0.834599 20.4919 1.07907 20.4919H1.74647C1.89738 20.4919 2.03183 20.4008 2.08156 20.265L4.6129 13.3499V13.379H10.0008C9.90464 13.1212 9.89148 12.8253 10.1238 12.4905C10.2914 12.2494 10.5589 12.0695 10.8595 12.0326C11.5103 11.9534 12.0645 12.435 12.0645 13.0403C12.0645 13.1599 12.039 13.2726 11.9992 13.379H17.3871V13.3499L19.9181 20.265C19.9678 20.4008 20.1023 20.4919 20.2532 20.4919H20.9206C21.1651 20.4919 21.3361 20.2615 21.2555 20.0414L18.321 12.0242H21.6452C21.8409 12.0242 22 11.8723 22 11.6854V11.008C22 10.8211 21.8409 10.6693 21.6452 10.6693Z" fill="#B35F39"/>
<path d="M11 12.0242C11.588 12.0242 12.0645 12.479 12.0645 13.0404C12.0645 13.1599 12.039 13.2727 11.9992 13.3791H17.3871V12.0242H11Z" fill="#DFDAD1"/>
<path d="M4.61279 13.3791H10.0007C9.96085 13.2727 9.93538 13.1599 9.93538 13.0404C9.93538 12.479 10.4118 12.0242 10.9999 12.0242H4.61279V13.3791Z" fill="#DFDAD1"/>
<path d="M1.74659 20.492H1.07919C0.834716 20.492 0.663707 20.2616 0.744274 20.0415L3.67914 12.0242H5.0985L2.08202 20.2651C2.03195 20.4008 1.89785 20.492 1.74659 20.492Z" fill="#706D69"/>
<path d="M20.2538 20.492H20.9212C21.1656 20.492 21.3366 20.2616 21.2561 20.0415L18.3212 12.0242H16.9019L19.9183 20.2651C19.9684 20.4008 20.1025 20.492 20.2538 20.492Z" fill="#706D69"/>
</svg>
