<svg width="18" height="17" viewBox="0 0 18 17" fill="none" xmlns="http://www.w3.org/2000/svg">
<g clip-path="url(#clip0)">
<path d="M12.284 5.80237C12.199 5.30102 12.0905 4.81792 11.9586 4.36155L11.9157 4.21324L12.0652 4.17467L12.6081 4.03459L12.7492 3.99817L12.7897 4.1382C13.0335 4.9821 13.2017 5.90501 13.2919 6.86321C13.5514 7.15862 13.7957 7.45684 14.0246 7.75601C14.3879 7.18697 14.6859 6.62364 14.9053 6.08008C15.1959 5.35962 15.3294 4.71677 15.3157 4.18671C15.3021 3.65749 15.1425 3.25066 14.857 2.98104L12.284 5.80237ZM12.284 5.80237C12.2125 5.73226 12.1401 5.66241 12.0667 5.59292L12.0666 5.5928C11.3353 4.90223 10.5678 4.28581 9.79476 3.75639M12.284 5.80237L9.79476 3.75639M9.79476 3.75639C10.3554 3.43815 10.911 3.17321 11.4494 2.9719C11.5736 3.24304 11.69 3.53507 11.7968 3.84799L11.8436 3.98527L11.9824 3.94306L12.518 3.78016L12.6664 3.73501L12.6163 3.58818C12.5102 3.27751 12.3947 2.98644 12.2718 2.7122C13.4692 2.40829 14.3744 2.52573 14.857 2.98099L9.79476 3.75639ZM12.0629 11.404C11.9403 11.5197 11.8169 11.6333 11.693 11.7446L11.6981 11.7498L11.5723 11.8521L11.4683 11.9441L11.4641 11.9399C11.0301 12.2908 10.2603 12.9016 9.7801 13.2454C10.3472 13.5686 10.9046 13.8322 11.4389 14.0317C11.8042 13.2335 12.0949 12.2671 12.28 11.195C12.2086 11.265 12.1363 11.3347 12.0629 11.404ZM12.0629 11.404C12.0629 11.404 12.0628 11.404 12.0628 11.404L11.9599 11.2949L12.0629 11.404ZM3.97414 7.76814C3.21071 6.57827 2.75582 5.43814 2.68386 4.49436L2.67255 4.34592L2.52402 4.35612L1.96303 4.39464L1.81227 4.40499L1.82374 4.55568C1.91306 5.72854 2.50301 7.11423 3.44497 8.50566C2.96503 9.21581 2.57116 9.92791 2.29261 10.6183L2.2926 10.6183C1.60214 12.3303 1.65102 13.7722 2.54103 14.6127C3.02715 15.0721 3.70866 15.2825 4.50085 15.2825C4.99457 15.2825 5.53553 15.1987 6.10577 15.0422C6.8533 16.3346 7.85551 17.15 9.00085 17.15C10.1431 17.15 11.1429 16.3389 11.8896 15.0527C12.3375 15.1776 12.7707 15.259 13.1791 15.2868L13.3274 15.2969L13.3388 15.1486L13.3796 14.6191L13.3912 14.4682L13.2403 14.4579C12.9366 14.4372 12.6134 14.3829 12.2749 14.2973C12.7899 13.1506 13.1485 11.7213 13.2948 10.1282C13.555 9.83202 13.7983 9.53252 14.0276 9.23187C14.791 10.4217 15.2459 11.5619 15.3181 12.5057L15.3295 12.6541L15.478 12.6439L16.0387 12.6054L16.1894 12.595L16.178 12.4443C16.0887 11.2715 15.4988 9.88553 14.5567 8.49407C15.0364 7.7842 15.4307 7.07209 15.7089 6.38164C16.3996 4.6697 16.3504 3.22785 15.4604 2.3873C14.6815 1.65137 13.4114 1.5298 11.8896 1.95282C11.1262 0.624827 10.1233 -0.15 9.00085 -0.15C7.85871 -0.15 6.85878 0.661061 6.1121 1.94733C5.66425 1.82243 5.23111 1.74096 4.82233 1.71322L4.67396 1.70315L4.66261 1.85144L4.6221 2.381L4.61057 2.53178L4.76144 2.54209C5.06507 2.56284 5.38839 2.61711 5.72686 2.70267C5.2118 3.84934 4.8532 5.27851 4.70689 6.8718C4.44686 7.16798 4.20341 7.46747 3.97414 7.76814ZM5.93855 5.59605C5.86519 5.66534 5.79291 5.73505 5.72151 5.80505C5.90682 4.73284 6.19761 3.76654 6.56279 2.96831C7.09651 3.16772 7.65329 3.43094 8.21984 3.75368C7.44094 4.28624 6.67091 4.90462 5.93857 5.59603L5.93855 5.59605ZM5.93527 11.4068L5.93541 11.4069C6.66594 12.0968 7.4328 12.7127 8.20497 13.2418C7.63683 13.5643 7.08343 13.8265 6.55909 14.0234C6.19636 13.2287 5.90754 12.2678 5.72283 11.2021C5.79274 11.2706 5.8635 11.3389 5.93527 11.4068ZM6.54225 6.19002L6.54226 6.19001C7.33342 5.44268 8.16796 4.78396 9.00578 4.23681C9.83589 4.78094 10.6697 5.43828 11.4626 6.18705C11.8133 6.51841 12.1433 6.85768 12.4545 7.20097C12.4884 7.62876 12.5071 8.06268 12.5071 8.5C12.5071 8.93848 12.4889 9.36956 12.4552 9.79108C12.1419 10.1368 11.8108 10.4781 11.4589 10.8105L11.4588 10.8106C11.3052 10.956 11.1506 11.0976 10.9946 11.2345C10.5115 11.6274 9.51845 12.4078 8.99232 12.7608C8.16324 12.2171 7.33075 11.5608 6.53911 10.8132C6.18865 10.4821 5.85867 10.1426 5.54735 9.79943C5.51323 9.37529 5.4946 8.94139 5.4946 8.5C5.4946 8.06152 5.51284 7.63044 5.54656 7.20892C5.85976 6.86321 6.19059 6.52214 6.54225 6.19002ZM9.00085 0.68125C9.71033 0.68125 10.4379 1.21177 11.0564 2.22851C10.3847 2.4863 9.69508 2.83296 9.00657 3.24864C8.31089 2.82781 7.61896 2.48299 6.95233 2.22663C7.5553 1.23258 8.27247 0.68125 9.00085 0.68125ZM4.48281 8.50457C4.53226 8.43703 4.58245 8.36954 4.63347 8.30214C4.63259 8.36778 4.6321 8.43371 4.6321 8.5C4.6321 8.56884 4.63262 8.63733 4.63356 8.7055C4.58239 8.6385 4.53213 8.57152 4.48281 8.50457ZM3.1447 14.019C2.85938 13.7495 2.69978 13.3427 2.68608 12.8134C2.67237 12.2833 2.80592 11.6404 3.09652 10.9199C3.31579 10.3763 3.6138 9.81297 3.97714 9.24391C4.20539 9.542 4.44857 9.83923 4.70718 10.134C4.85346 11.7207 5.21005 13.1447 5.72239 14.2885C4.55543 14.5863 3.64683 14.493 3.1447 14.019ZM9.00085 16.3188C8.27075 16.3188 7.55168 15.7646 6.94786 14.7659C7.60671 14.5149 8.29615 14.1743 8.99646 13.7523C9.69164 14.1727 10.3828 14.5171 11.0491 14.7734C10.4464 15.7674 9.72924 16.3188 9.00085 16.3188ZM13.5188 8.49532C13.4694 8.5627 13.4192 8.63005 13.3683 8.69733C13.3691 8.63186 13.3696 8.5661 13.3696 8.5C13.3696 8.43136 13.3691 8.36288 13.3681 8.29455C13.4192 8.36148 13.4695 8.42841 13.5188 8.49532Z" fill="#F3BC88" stroke="#F3BC88" stroke-width="0.3"/>
<path d="M15.751 14.0781C15.751 14.5182 15.3732 14.875 14.9072 14.875C14.4413 14.875 14.0635 14.5182 14.0635 14.0781C14.0635 13.6381 14.4413 13.2812 14.9072 13.2812C15.3732 13.2812 15.751 13.6381 15.751 14.0781Z" fill="#33C0DB"/>
<path d="M3.93848 2.92188C3.93848 3.36195 3.56068 3.71875 3.09473 3.71875C2.62877 3.71875 2.25098 3.36195 2.25098 2.92188C2.25098 2.4818 2.62877 2.125 3.09473 2.125C3.56068 2.125 3.93848 2.4818 3.93848 2.92188Z" fill="#33C0DB"/>
<path d="M10.9697 8.5C10.9697 9.52696 10.0883 10.3594 9.00097 10.3594C7.91374 10.3594 7.03223 9.52696 7.03223 8.5C7.03223 7.47304 7.91374 6.64062 9.00097 6.64062C10.0883 6.64062 10.9697 7.47304 10.9697 8.5Z" fill="#FCB641"/>
<path d="M9.28223 7.70312H9.84473V8.23438H9.28223V7.70312Z" fill="#FCD086"/>
</g>
<defs>
<clipPath id="clip0">
<rect width="18" height="17" fill="white"/>
</clipPath>
</defs>
</svg>
