<svg width="1920" height="278" viewBox="0 0 1920 278" fill="none" xmlns="http://www.w3.org/2000/svg">
<path d="M226.982 7.57292C226.982 7.57292 242.319 24.612 261.046 7.57292C267.448 1.79763 273.414 -0.0679306 278.498 0.0311038C288.852 -0.241596 295.951 7.57292 295.951 7.57292C295.951 7.57292 311.288 24.612 330.014 7.57292C348.741 -9.46615 364.078 7.57292 364.078 7.57292C364.078 7.57292 379.414 24.612 398.141 7.57292C416.868 -9.46615 432.205 7.57292 432.205 7.57292C432.205 7.57292 447.542 24.612 466.268 7.57292C484.995 -9.46615 500.332 7.57292 500.332 7.57292C500.332 7.57292 515.668 24.612 534.395 7.57292C540.602 1.97394 546.399 0.0765115 551.38 0.0561152C561.479 0.322764 568.364 7.57292 568.364 7.57292C568.364 7.57292 583.701 24.612 602.428 7.57292C621.155 -9.46615 636.491 7.57292 636.491 7.57292C636.491 7.57292 651.828 24.612 670.555 7.57292C689.282 -9.46615 704.618 7.57292 704.618 7.57292C704.618 7.57292 719.955 24.612 738.682 7.57292C757.409 -9.46615 772.745 7.57292 772.745 7.57292C772.745 7.57292 788.082 24.612 806.809 7.57292C813.015 1.97394 818.813 0.0765118 823.793 0.0561152C833.893 0.175256 840.778 7.57292 840.778 7.57292C840.778 7.57292 856.114 24.612 874.841 7.57292C893.568 -9.46615 908.905 7.57292 908.905 7.57292C908.905 7.57292 924.241 24.612 942.968 7.57292C961.695 -9.46615 977.032 7.57292 977.032 7.57292C977.032 7.57292 992.368 24.612 1011.1 7.57292C1029.82 -9.46615 1045.16 7.57292 1045.16 7.57292C1045.16 7.57292 1060.5 24.612 1079.22 7.57292C1085.59 1.82986 1091.52 -0.0186911 1096.59 0.0582384C1106.99 -0.259802 1114.13 7.28284 1114.13 7.28284C1114.13 7.28284 1129.46 24.612 1148.19 7.57292C1166.92 -9.46615 1182.25 7.57292 1182.25 7.57292C1182.25 7.57292 1197.59 24.612 1216.32 7.57292C1235.04 -9.46615 1250.38 7.57292 1250.38 7.57292C1250.38 7.57292 1265.72 24.612 1284.44 7.57292C1303.17 -9.46615 1318.51 7.57292 1318.51 7.57292C1318.51 7.57292 1333.84 24.612 1352.57 7.57292C1358.78 1.97394 1364.58 0.0765119 1369.56 0.0561152C1379.66 0.0251456 1386.54 7.57292 1386.54 7.57292C1386.54 7.57292 1401.88 24.612 1420.6 7.57292C1439.33 -9.46615 1454.67 7.57292 1454.67 7.57292C1454.67 7.57292 1470 24.612 1488.73 7.57292C1507.46 -9.46615 1522.79 7.57292 1522.79 7.57292C1522.79 7.57292 1538.13 24.612 1556.86 7.57292C1575.59 -9.46615 1590.92 7.57292 1590.92 7.57292C1590.92 7.57292 1606.26 24.612 1624.99 7.57292C1631.19 1.97394 1636.99 0.0446206 1641.97 0.0242239C1652.07 -0.0067458 1658.95 7.57292 1658.95 7.57292C1658.95 7.57292 1674.29 24.612 1693.02 7.57292C1711.74 -9.46615 1727.08 7.57292 1727.08 7.57292C1727.08 7.57292 1742.42 24.612 1761.14 7.57292C1779.87 -9.46615 1795.21 7.57292 1795.21 7.57292C1795.21 7.57292 1810.54 24.612 1829.27 7.57292C1848 -9.46615 1863.34 7.57292 1863.34 7.57292C1863.34 7.57292 1878.67 24.612 1897.4 7.57292C1906.12 -0.291266 1914.03 -0.852932 1920 0.832251V1869H0V0.832251C13.0765 -2.9126 22.6014 7.57292 22.6014 7.57292C22.6014 7.57292 37.938 24.612 56.6648 7.57292C75.3917 -9.46615 90.7283 7.57292 90.7283 7.57292C90.7283 7.57292 106.065 24.612 124.792 7.57292C143.519 -9.46615 158.855 7.57292 158.855 7.57292C158.855 7.57292 174.192 24.612 192.919 7.57292C211.646 -9.46615 226.982 7.57292 226.982 7.57292Z" fill="url(#paint0_radial)"/>
<defs>
<radialGradient id="paint0_radial" cx="0" cy="0" r="1" gradientUnits="userSpaceOnUse" gradientTransform="translate(960 58.9117) rotate(90) scale(2301.02 5635.87)">
<stop offset="0.332339" stop-color="#C4E6ED"/>
<stop offset="0.549921" stop-color="#A7E0F1"/>
<stop offset="0.728177" stop-color="#4FC5EB"/>
<stop offset="0.898509" stop-color="#2E8BCB"/>
</radialGradient>
</defs>
</svg>
